<svg width="145" height="115" viewBox="0 0 145 115" fill="none" xmlns="http://www.w3.org/2000/svg">
<path d="M0.420292 88.0613H1.0007L1.7212 87.8611L2.4417 88.0212L3.1622 87.721L3.8827 87.9212L4.6032 88.0412L5.30369 88.0613H6.02419L6.74469 87.9312L7.46519 87.8511L8.18569 87.731L8.9162 87.671L9.6367 87.9212L10.3672 88.0112L11.0877 87.681L11.8182 87.7911L12.5387 87.691L13.2592 87.5709L13.9897 87.7911L14.7202 87.5709L15.4507 87.691H16.2613L16.1112 88.5416L15.9711 89.3021L16.1012 90.0727L16.0312 90.7131L15.4507 91.0734L14.7302 90.8232H13.9997L13.2692 91.0533L12.5487 90.6431L11.8182 90.7832L11.0877 91.1234L10.3572 90.8032L9.6367 90.7031L8.90619 90.8132L8.17569 91.0633L7.44518 90.7731L6.71467 91.0633H5.98416L5.25365 91.2735L4.52315 90.9032H3.71258L3.52245 91.6738L3.99278 92.3643L3.67255 93.0647L3.86269 93.7552L3.7326 94.4457L3.8827 95.1362L3.94274 95.8267L3.55247 96.5171L3.91272 97.2076L4.00278 97.8981L3.56248 98.5986L3.66255 99.4192L4.51314 99.3491L5.24365 99.5292H6.00418L6.73468 99.239L7.46519 99.3191L8.20571 99.4292L8.93622 99.2991L9.66672 99.4292L10.3972 99.179L11.1377 99.4492L11.8783 99.1089L12.6188 99.199H13.5094L13.4494 100.1L13.4994 100.85L13.2792 101.601L13.3693 102.361L12.6288 102.471H11.8883L11.1578 102.371L10.4072 102.071L9.67673 102.511L8.93622 102.111L8.20571 102.221H7.46519L6.73468 102.071L6.00418 102.491L5.26366 102.381L4.52315 102.071L3.86269 102.291L3.70258 102.922L4.00278 103.642L3.60251 104.353V105.063L3.50244 105.784L3.72259 106.494L3.96276 107.205L3.58249 107.925L3.98277 108.636L3.53246 109.356L3.86269 110.067L3.7426 110.787L3.96276 111.498L3.68256 112.218L3.75261 112.939L3.64253 113.659V114.31L3.0121 114.179L2.31161 114.52L1.60111 114.209L0.900626 114.45L0.260181 114.31L0.450313 113.669V112.949L0 112.268V111.558L0.380264 110.837L0 110.127V109.406L0.210146 108.696L0.410285 107.975L0.170118 107.265V106.544L0.240167 105.834L0.400278 105.073L0.220153 104.363L0.470327 103.642L0.370258 102.922L0.180125 102.211L0.0700487 101.491L0.13009 100.78V100.07L0.370258 99.3591V97.2076L0.140097 96.4871L0.0300209 95.7666L0.450313 95.0661L0.0700487 94.3556L0.510355 93.6351L0.450313 92.9146L0.270188 92.1941L0.180125 91.4736V90.7531L0.410285 90.0626L0.0500348 89.3421L0.490341 88.6517L0.420292 88.0613Z" fill="#FF804F"/>
<path d="M20.3342 101.15L20.2841 100.43L20.2141 99.7094L20.3241 98.9989L20.5443 98.3084L20.8545 97.6479V96.9074L21.2648 96.297V95.5365L21.7752 94.9761L21.9453 94.2756L22.2455 93.6251L22.4957 92.9446L22.7959 92.2742L23.5264 91.9339L23.7165 91.1534L24.5071 90.9333L24.9874 90.4029L25.5778 90.0126L26.0181 89.4122L26.7186 89.192L27.249 88.6417L27.9194 88.3815L28.6399 88.2614L29.2904 87.9512L30.0209 88.0612L30.7114 87.9011L31.3918 87.741L32.0823 87.3708L32.8128 87.8111L33.5133 87.691L34.2538 87.4108L34.9443 87.681L35.6548 87.751L36.3653 87.8811L37.0057 88.2414L37.7363 88.3214L38.2166 88.9819L38.817 89.3221H39.6576L40.1479 89.8725L40.7784 90.2328L41.3188 90.7031L41.8491 91.1934L42.2494 91.7938L42.3995 92.5644L43.06 92.9747L43.5203 93.525L43.6904 94.2456L44.1607 94.8159L44.3509 95.5164L44.4509 96.2269L44.6511 96.9174L44.9112 97.5779L45.1914 98.2583L45.2715 98.9788L45.0513 99.7094L45.0013 100.42L45.3816 101.13L45.2415 101.841L44.9313 102.531L44.8212 103.222L44.7011 103.912V104.623L44.511 105.303L44.2408 105.944L44.0106 106.604L44.1307 107.415L43.4803 107.895L43.4302 108.666L43.15 109.336L42.6897 109.886L42.3595 110.537L41.739 110.947L41.2187 111.438L40.6783 111.888L40.198 112.428L39.4875 112.648L38.9771 113.159L38.2266 113.229L37.6362 113.619L37.0958 114.189L36.3253 114.129L35.6848 114.5H34.9543L34.2538 114.62L33.5533 114.77L32.8429 114.83L32.1324 114.6L31.4419 114.41L30.6914 114.7L30.0209 114.38L29.3004 114.32L28.72 113.809H27.9695L27.3791 113.399H26.5885L26.1182 112.788L25.5578 112.368L24.8373 112.118L24.2969 111.638L23.9967 110.937L23.4363 110.487L23.1461 109.816L22.6558 109.296L22.3255 108.666L21.8752 108.105L21.615 107.445L21.4549 106.734L21.0146 106.074L20.5943 105.453L20.5343 104.723L20.7244 103.962L20.4843 103.282L20.2841 102.591L20.5643 101.861L20.3342 101.15ZM32.7728 111.558L33.4933 111.458L34.1838 111.267L34.8843 111.147L35.6048 111.047L36.3453 110.927L36.9057 110.417L37.6362 110.197L38.0365 109.536L38.747 109.226L39.1272 108.576L39.5375 107.975L39.8077 107.295L40.0379 106.614L40.6783 106.124L40.6083 105.313L41.2187 104.763L41.3388 104.032L41.5389 103.332L41.3988 102.581L41.639 101.871L41.4188 101.15V100.43L41.4889 99.6993L41.2787 99.0089L41.4388 98.2283L41.2187 97.5278L40.9185 96.8574L40.3581 96.307L40.4682 95.4564L40.0279 94.886L39.3574 94.4557L39.0272 93.7752L38.4968 93.2849L38.0265 92.8146L37.5661 92.2442L36.8757 92.004L36.4354 91.2935L35.7549 90.9833L34.9243 91.1934L34.2638 90.8732H32.8228L32.1123 90.9433H31.3918L30.6013 90.7631L29.9909 91.2835L29.3804 91.6537L28.6599 91.8239L28.1696 92.3843L27.5592 92.7645L26.9488 93.1648L26.4584 93.7052L26.1082 94.3456L25.838 95.0161L25.4877 95.6365L24.9073 96.1569L24.5571 96.8073L24.6772 97.6079L24.377 98.2784L23.9667 98.9388L23.8266 99.6593L23.7365 100.4L23.8166 101.14V102.611L23.9166 103.352L24.457 103.982L24.2769 104.783L24.7873 105.383L25.1575 106.014L25.3977 106.694L25.858 107.255L26.0681 107.975L26.4884 108.566L26.9588 109.126L27.5592 109.536L27.9895 110.167L28.7 110.427L29.2103 111.027L29.9408 111.207L30.7414 111.087L31.3818 111.518L32.1224 111.397L32.7728 111.558Z" fill="#FF804F"/>
<path d="M60.2519 103.722L59.6715 104.232L59.4914 104.953L59.2712 105.643L59.011 106.314L58.1304 107.435L57.7902 108.055L57.3599 108.626L57.0797 109.286L56.8895 109.996L56.139 110.377V111.227L55.4686 111.658L55.1583 112.298L54.7581 112.889L54.4779 113.549L53.8774 114.029L53.7674 114.85L53.207 114.43L52.7867 113.879L52.1162 113.709L51.6059 113.279L51.1956 112.939V112.268L51.5158 111.628L52.2963 111.257L52.3764 110.477L52.7266 109.846L52.9468 109.146L53.4371 108.596L53.8474 108.005L54.0676 107.295L54.618 106.784L55.1984 106.294V105.423L55.7187 104.893L56.169 104.323L56.5593 103.712L56.9096 103.092L57.3799 102.521V101.701L58.0303 101.24L58.4406 100.54L57.7201 100.04L57.3699 99.4091V98.5585L56.9496 98.0682L56.5293 97.4678L56.039 96.8674L55.8989 96.1168L55.4886 95.5164L55.2584 94.8159L54.4979 94.4257L54.2477 93.7252L54.0376 93.0647L53.7874 92.3742L53.4972 91.7038L53.0369 91.1134L52.7166 90.4529L52.2163 89.9025L51.786 89.2821L52.5665 89.142L53.187 88.7918L53.7073 88.2514L54.2077 87.681L54.9482 87.4608L55.2384 88.1713L55.4686 88.8818L55.8288 89.5122L56.2091 90.1427L56.8195 90.633L57.1898 91.2635L57.4599 91.9439L57.9103 92.5344L58.3806 93.1048L58.5807 93.8353L58.8609 94.5257L59.4914 95.0061L59.7816 95.6865L59.9917 96.4171L60.422 97.2376L60.8023 96.387L61.0725 95.6965L61.5528 95.1362L61.9631 94.5257L62.2633 93.8453L62.8437 93.3349L62.9438 92.5444L63.324 91.9139L63.8344 91.3635L63.9645 90.593L64.5749 90.0927L64.8551 89.4122L65.4255 88.8918L65.6056 88.1313L66.0259 87.5909L66.5963 87.761L67.0666 88.2614L67.667 88.5116L68.1374 89.0119H69.1381L68.5476 89.6924L67.9873 90.1927L67.8372 90.9332L67.617 91.6337L67.1567 92.1941L66.5963 92.6945L66.246 93.3149V94.1255L65.7057 94.6358L65.0752 95.1061L64.8851 95.8166L64.3547 96.337L64.2847 97.1275L64.0745 97.838L63.344 98.2483V99.0589L62.6435 99.4792L62.3133 100.21L62.7836 100.83L63.0338 101.491L63.5342 102.011L63.8744 102.621L64.3447 103.162L64.5949 103.842L64.9752 104.443L65.4055 105.003V105.824L65.8258 106.394L66.3461 106.914L66.6964 107.525L67.0966 108.115L67.567 108.656L67.667 109.426L68.0473 110.017L68.6177 110.507L68.9479 111.137L69.1381 111.848L69.7585 112.318L69.9286 113.059L69.3882 113.549L68.7878 113.929L68.1674 114.269L67.3068 114.189L66.8164 114.72L66.4962 114.129L65.9658 113.629L65.6356 112.999L65.2453 112.408L65.0152 111.718L64.5549 111.177L64.0946 110.627L64.0145 109.856L63.5842 109.286L63.334 108.606L62.7636 108.115L62.3834 107.525V106.714L62.0331 106.104L61.7329 105.453L60.9624 105.073L60.8823 104.293L60.2519 103.722Z" fill="#FF804F"/>
<path d="M77.614 111.317L78.3745 111.478L79.075 111.167L79.7755 111.227L80.476 111.428L81.1765 111.367L81.8169 111.307L81.927 110.647L81.7269 109.926L82.0171 109.196V107.735L81.7069 107.004L81.877 106.274V105.543L81.6768 104.813L81.7469 104.092V103.362L81.887 102.641L81.9971 101.911L81.7369 101.18L82.0271 100.45L81.7469 99.7194L82.0971 98.9889L81.7769 98.2584L81.6468 97.5278L81.8069 96.7973L82.0571 96.0668L81.857 95.3363L82.0971 94.6058L81.7169 93.8753L81.957 93.1348V92.4043L81.8269 91.6638L81.907 90.8932L81.1665 91.0934L80.466 90.7832L79.7555 91.1534L79.045 90.8532L78.3345 90.7231L77.594 90.9533V90.1727L77.654 89.4122L77.4539 88.6517L77.604 87.8311L78.3745 88.1113L79.085 87.741L79.7855 87.631L80.486 87.741L81.1865 88.0212L81.887 87.9212L82.5975 87.631L83.298 88.0813L83.9984 87.731H84.7089L85.4094 88.0613H86.0599L86.7604 87.9812L87.4709 88.0713L88.1713 87.9712H89.4723V88.6116L89.2921 89.3722L89.5623 90.1227L89.4222 90.7731L88.8618 90.9132H87.4809L86.7804 90.7331H86.0799L85.3694 90.8732L85.4394 91.6137L85.3794 92.3442V93.0747L85.2093 93.7952L85.2893 94.5258L85.2093 95.2563L85.6196 95.9868L85.4094 96.7173L85.5896 97.4478L85.4795 98.1783L85.3794 98.8988L85.6796 99.6293V101.09L85.2893 101.821L85.5795 102.541L85.4394 103.272L85.2993 104.012V104.743L85.7497 105.473L85.6696 106.204V106.934L85.7296 107.675L85.5395 108.405L85.4695 109.136L85.7196 109.876V110.607L85.3394 111.478L86.17 111.598L86.8604 111.237L87.5509 111.508L88.2514 111.367L88.9419 111.127L89.5823 111.407L89.8925 112.108L89.4723 112.859L89.6724 113.619V114.43L88.9119 114.5H88.2214L87.5109 114.69L86.8204 114.42L86.1199 114.239L85.4194 114.179L84.719 114.52L84.0085 114.68L83.308 114.34L82.6075 114.56L81.907 114.4L81.2065 114.67L80.506 114.4L79.7955 114.54H79.055L78.3445 114.47L77.7741 114.31L77.654 113.679L77.8542 112.919L77.7841 112.148L77.614 111.317Z" fill="#FF804F"/>
<path d="M100.86 87.761L101.701 88.0412H102.421L103.142 88.1313H103.862L104.583 87.9011L105.303 87.8211L106.024 87.8711L106.744 87.9312L107.465 88.0813L108.185 87.691L108.906 88.1313L109.636 87.751L110.357 88.1013L111.087 87.8011L111.808 87.661L112.538 88.0412L113.259 88.1413H113.979L114.71 88.0012L115.44 87.8311L116.171 87.9512L116.961 87.8411L117.021 88.6717L116.871 89.4322V90.2027L116.811 90.8532L116.211 90.7731L115.49 90.8632L114.76 91.1634L114.029 91.0834H113.309L112.578 91.2435H111.848L111.127 90.9533L110.397 91.0834L109.666 91.1634L108.936 90.7932L108.205 91.0734L107.475 91.2335L106.744 90.9633L106.014 90.8332L105.283 90.9333L104.693 91.1334L104.613 91.6738L104.703 92.3643V93.0547L104.383 93.7452V95.1262L104.803 95.8167L104.433 96.5071L104.283 97.1976V97.8881L104.743 98.5886L104.683 99.1089L105.243 99.4492H106.714L107.445 99.5092L108.175 99.2991L108.916 99.0789L109.646 99.5292L110.377 99.219L111.077 99.0689L111.808 99.3191L112.548 99.249H114.089L113.769 100.06L113.969 100.81L113.809 101.561L113.889 102.171L113.299 102.071L112.568 102.461L111.828 102.531L111.097 102.381L110.367 102.141L109.626 102.551L108.896 102.161L108.155 102.561L107.425 102.491H106.694L105.954 102.251L105.213 102.141L104.473 102.301L104.403 103.002L104.503 103.702L104.373 104.403L104.433 105.103L104.573 105.804L104.323 106.514L104.453 107.215L104.683 107.915L104.423 108.616L104.633 109.316L104.503 110.027V110.727L104.403 111.518L105.203 111.387L105.924 111.518L106.654 111.317L107.385 111.648L108.105 111.417L108.836 111.277L109.556 111.518L110.287 111.608L111.017 111.448H113.209L113.929 111.618L114.67 111.438L115.4 111.558H116.131L116.881 111.468L116.621 112.248L117.041 112.999L116.841 113.759L116.781 114.44H116.141L115.42 114.36L114.7 114.289H113.989L113.269 114.43L112.548 114.259L111.828 114.57H110.377L109.656 114.269L108.215 114.55L107.485 114.62L106.764 114.68L106.034 114.44L105.313 114.32L104.593 114.43L103.862 114.32L103.142 114.49H102.411L101.681 114.229H101.1V113.669L100.92 112.949V112.238L100.83 111.528L101.15 110.807L101.03 110.097L100.93 109.376L101.12 108.666L101.21 107.945L101.14 107.235L100.74 106.514L100.8 105.804L101.19 105.083L101 104.373L100.77 103.652V102.932L101.05 102.221L100.86 101.501V100.79L101.07 100.07V99.3591L101.13 98.6386L101.22 97.9181V97.2076L101.04 96.4871L101.15 95.7666L100.97 95.0461L101.1 94.3356L100.9 93.6151L101.19 92.8946L101.07 92.1741L101.22 91.4536V90.7331L100.78 90.0126L101.28 89.2921L101.07 88.5616L100.86 87.761Z" fill="#FF804F"/>
<path d="M123.716 108.365L124.577 108.235L124.997 107.605L125.717 107.395L126.368 107.084L126.818 106.574L127.108 107.084L127.569 107.635L128.099 108.125L128.549 108.656L128.75 109.466L129.42 109.796L130.05 110.137L130.591 110.627L131.161 111.087H132.652L133.253 111.658L133.983 111.718L134.704 111.297L135.424 111.778L136.045 111.197L136.785 111.317L137.396 110.967H138.166L138.596 110.327L139.187 109.956L139.587 109.376L140.107 108.876L140.508 108.245L140.228 107.465V106.794L140.117 106.124L139.967 105.483L139.697 104.883L139.597 104.112L139.057 103.632L138.366 103.392L137.796 102.982L137.115 102.771L136.465 102.491L135.774 102.281L135.014 102.431L134.323 102.241L133.733 101.651L132.932 101.911L132.342 101.33H131.592L130.931 101.02H130.171L129.63 100.43H128.82L128.309 99.8595L127.659 99.5192L127.118 99.0389L126.698 98.4485L126.088 98.0682L125.958 97.3077L125.858 96.5772L125.667 95.9067L125.257 95.2463L125.427 94.5057L125.187 93.7752L125.287 93.0447L125.677 92.3943L125.767 91.6438L126.248 91.0734L126.858 90.633L127.379 90.1727L127.879 89.6924L128.209 88.9219H129.03L129.56 88.3915L130.291 88.3214L130.901 87.8611L131.602 87.661H132.332L133.063 87.8111H134.514L135.224 88.0412L135.995 87.9112L136.695 88.1613L137.356 88.4916L138.066 88.6817L138.767 88.9219L139.497 89.142L139.927 89.8225L140.528 90.2428L141.068 90.7331L141.729 91.1434L142.249 91.6938L142.659 92.5144L141.979 92.8446L141.478 93.2949L141.108 93.8953L140.298 93.9854L139.957 94.6158L139.617 94.0054L139.117 93.515L138.536 93.1148L138.096 92.4643L137.596 91.964L136.965 91.6638L136.405 91.2235H135.684L135.024 91.0533L134.363 90.7631L133.653 90.6831L132.912 90.8232L132.172 90.9032L131.562 91.4136L130.871 91.5737L130.211 91.8939L129.84 92.5144L129.41 93.0647L129.23 93.7152L128.89 94.3756V95.0961L129.37 95.6565L129.72 96.2169L130.111 96.7773L130.601 97.3077L131.291 97.5078L131.882 97.9281L132.592 98.0382L133.293 98.1483L133.983 98.2483L134.584 98.6786H135.284L135.975 98.7887L136.665 98.9188L137.356 99.119L137.966 99.6093L138.656 99.7994L139.377 99.9395L139.907 100.49L140.608 100.69L141.348 100.89L141.709 101.601L142.399 101.931L142.599 102.681L143.3 103.092L143.6 103.762L143.81 104.473L143.92 105.193L144.12 105.904V106.644L144.18 107.395L144.04 108.135L143.6 108.786V109.566L142.929 110.057L142.759 110.797L142.239 111.317L141.879 111.978L141.388 112.538L140.718 112.879L140.097 113.279L139.467 113.639L138.767 113.879L138.136 114.32L137.326 114.139L136.705 114.74H135.945L135.224 115L134.474 114.51L133.743 114.98L133.063 114.45L132.322 114.63L131.642 114.36L130.941 114.229L130.261 114.009L129.59 113.779L128.92 113.499L128.319 113.099L127.819 112.568H126.958L126.398 112.108L126.078 111.387L125.437 111.007L125.047 110.387L124.497 109.906L124.276 109.176L123.716 108.365Z" fill="#FF804F"/>
<path d="M56.3792 26.5785L56.079 25.938L55.7988 25.2576L55.3685 24.6471L55.1684 23.9366L54.9082 23.2962L54.668 22.6457L54.4379 22.0153L54.0876 21.4149L53.8474 20.7544L53.4271 20.194L53.157 19.5436L52.9568 18.8831L52.6366 18.2627L52.4265 17.6022L52.1362 16.9718L52.0362 16.2613L51.826 15.5008L51.4158 14.8303L51.2256 14.0598L50.8353 13.3793L50.7053 12.6688L50.365 12.0083L49.9848 11.4079L49.6745 10.7775L49.3243 10.1671L48.954 9.56665L48.5337 9.00626L47.8132 8.45588L47.473 8.9162L47.3129 9.67673L47.0827 10.4172L46.8426 11.1478L46.6624 11.8983L46.5724 12.6688L46.4623 13.3493L46.2221 14.0097V14.7002L46.042 15.3707L45.8819 16.0311L45.8119 16.7216L45.6818 17.3921L45.5717 18.0726L45.4616 18.7931V21.0146L45.3916 21.7351L45.3315 22.4556L45.4216 23.1761V23.8966L45.3315 24.6071V26.0982L45.4116 26.8287L45.3515 27.5792L45.4816 28.3097V29.0602L45.5817 29.7907V30.5412L45.6617 31.2717V32.0223L45.9219 32.6427L46.2822 33.2231L46.8226 33.6234L47.5831 33.5333L48.3136 33.1931L48.954 32.7228L49.4244 32.1624L49.8747 31.582L50.4651 31.1417L50.9554 30.6013L51.5358 30.151L52.1663 29.7807L52.7467 29.3404L53.4071 29.0302L54.0076 28.6099L54.688 28.3297L55.3185 27.9594L56.019 27.7493L56.1991 27.1689L56.3792 26.5785Z" fill="#FF804F"/>
<path d="M77.5039 28.2697L78.1744 28.3397L78.8348 28.5298L79.3952 28.9902L79.9656 29.4605L80.556 29.9108L81.1664 30.3311L81.6868 30.8515L82.2472 31.3418L82.8676 31.7421L83.4681 32.1624L84.1685 32.4326L84.829 32.7428L85.5295 32.8729L86.0198 32.5526L86.5302 32.2124L86.6202 31.5419V27.3991L86.5202 26.6585L86.5902 25.908V25.1675L86.4901 24.427L86.3801 23.6965V23.016L86.27 22.3255L86.0599 21.6451L85.9998 20.9546L85.8697 20.2741V19.5736L85.6796 18.9031V18.2027L85.5095 17.5322L85.4094 16.8517L85.3393 16.1612L85.1692 15.4908V14.7903L84.899 14.1398V13.4393L84.7289 12.7689L84.5188 12.1084L84.2686 11.458L84.1585 10.7275L83.8783 10.007L83.5581 9.35651L82.8576 9.03628L82.2772 9.58667L81.7769 10.1771L81.4266 10.8776L81.0664 11.5781L80.8562 12.3386L80.6561 13.0191L80.3659 13.6795L80.1658 14.37L79.8455 15.0104L79.6054 15.6809L79.2851 16.3213L79.055 17.0118L78.7348 17.6523L78.4646 18.3127L78.2544 19.0132L77.8942 19.6837L77.594 20.3642L77.3238 21.0747L77.0636 21.7751L76.7334 22.4556L76.3031 23.076L76.0529 23.8166L75.7026 24.477L75.4525 25.1575L75.2323 25.848L75.3624 26.5685L75.7127 27.1789L76.1229 27.7693L76.7634 28.1396L77.5039 28.2697Z" fill="#FF804F"/>
<path d="M74.9421 58.4006L74.1015 58.6008L73.7313 59.4013L73.4611 60.1919L72.9407 60.8523L72.1101 60.9924L71.4497 60.9524L70.7992 60.9224L70.1988 60.6822L69.6584 60.3119L69.2782 59.7616L68.8479 59.2312L68.1474 58.0704L67.8472 57.49L68.6077 57.1898L69.3882 56.8796L70.1488 56.5093L70.7992 56.089L71.3596 55.5586L71.7399 54.8782L71.7899 54.1176L71.8199 53.4372L71.6098 52.7867L71.2095 52.2363L70.6791 51.836L70.0887 51.4958L69.4483 51.3057L68.7978 51.1656L68.1574 50.9855L67.4969 50.8754L66.8565 50.6752L66.106 50.7053L65.3655 50.6252L64.6249 50.7653L63.9044 50.9354L63.1939 51.1556L62.5335 51.4958L61.843 51.796L61.2926 52.2964L60.7422 52.6866L60.462 53.3071L60.4921 53.9875L60.7322 54.668L61.0525 55.3085L62.1032 56.2791L62.7837 56.5293L63.5942 56.7395L64.3547 57.0997L64.1846 57.8002L63.8444 58.4206L63.5342 59.0511L63.1439 59.6415L62.6436 60.1318L62.0732 60.5421L61.3727 60.6922L60.6722 60.8523H59.9617L59.2412 60.8423L58.8209 60.372L58.5507 59.8016L58.2205 59.2612L57.8202 58.6608L57.3199 58.0904L56.6894 58.6808L56.119 59.2512L56.049 59.9517L56.029 60.6722L56.3592 61.3226L56.7094 61.9431L57.1998 62.4634L57.7201 62.9638L58.3806 63.264L59.0711 63.4341L59.7716 63.6142L60.4921 63.6042L61.1926 63.4141L61.893 63.284L62.5835 63.1139L63.1939 62.7236L63.8244 62.4034L64.3748 61.9431L64.9952 61.3927L65.6256 60.8523L66.176 60.2519L66.2661 60.342L66.8165 60.9424L67.2268 61.5028L67.657 62.0532L68.2074 62.4634L68.7778 62.8737L69.4283 63.1139L70.0787 63.3641L70.7592 63.5242L71.4597 63.4741L72.1802 63.5342L72.8807 63.324L73.6012 63.204L74.2416 62.8437L74.752 62.3434L75.2223 61.813L75.5726 61.1826L75.8027 60.5021L75.8828 59.7816L75.7727 59.1812L75.4725 58.6708L74.9421 58.4006Z" fill="#FF804F"/>
<path d="M78.3645 45.6818L78.1944 45.0213L77.8041 44.4809L77.2337 44.1407L76.5933 43.9205L75.9328 44.2808L75.3624 44.7811L74.9822 45.4216L74.8521 46.1521L74.8721 46.9026L75.0422 47.6431L74.3617 48.1735L74.6219 48.934L74.782 49.6745L75.1022 50.355L75.5926 50.9354L76.153 51.4458L76.8935 51.6759L77.644 51.3757L78.1644 50.7853L78.4346 50.0448L78.5546 49.2643L78.6247 48.4737L78.6547 47.7732L78.5746 47.0727L78.4446 46.3823L78.3645 45.6818Z" fill="#FF804F"/>
<path d="M57.3098 50.7353L57.52 50.0948L57.7301 49.4644L58.0003 48.8039L58.1204 48.0935L58.0904 47.383L57.9503 46.6725L57.7401 45.992L57.52 45.3115L57.1497 44.7311L56.6494 44.2708L56.0089 44.0807L55.3385 44.2108L54.7681 44.581L54.3478 45.1214L54.0275 45.8819L53.9075 46.7025L53.7574 47.5131L53.8874 47.5431L53.9175 48.2636L53.9475 48.934L54.0976 49.5845L54.3578 50.1949L54.748 50.7253L55.2384 51.1756L55.7888 51.5158L56.4192 51.6059L56.9596 51.2757L57.3098 50.7353Z" fill="#FF804F"/>
<path d="M68.968 65.0352L68.3275 65.4355L67.6471 65.7958L66.9166 66.0159L66.166 66.156L65.3955 66.086L64.675 65.8458L64.0546 65.3955L63.5142 64.9051L62.8537 64.7951L62.3534 65.3054L62.0031 65.9359L62.4234 66.4462L62.8738 66.9265L63.3641 67.3568L63.9745 67.6971L64.625 67.9072L65.3054 68.0773L65.9859 68.1274L66.6864 68.1574L67.3669 68.0473L68.0474 67.8972L68.7078 67.7071L69.2682 67.3568L69.6184 66.7965L69.6685 66.136L69.4283 65.5256L68.968 65.0352Z" fill="#FF804F"/>
<path d="M68.9679 65.0252L68.3475 65.4755L67.6471 65.7958L66.9265 66.0459L66.156 66.136L65.3955 66.076L64.6649 65.8558L64.0645 65.3855L63.5342 64.8851L62.8437 64.7751L62.3734 65.3154L62.0131 65.9359L62.4434 66.4262L62.8738 66.9265L63.3741 67.3368L63.9745 67.6871L64.6249 67.9273L65.3054 68.0773L65.9859 68.1474L66.6864 68.1574L67.3668 68.0273L68.0473 67.8872L68.7078 67.7071L69.2681 67.3469L69.6084 66.7965L69.6484 66.146L69.4283 65.5256L68.9679 65.0252Z" fill="#FF804F"/>
<path d="M74.9321 58.4507L74.1215 58.6208L73.7413 59.4013L73.4411 60.1819L72.9007 60.7823L72.1101 60.9924L71.4497 61.0325L70.7892 60.9824L70.1888 60.7022L69.7185 60.2719L69.2482 59.7716L68.8479 59.2312L68.5777 58.6008L68.1374 58.0704L67.7771 57.46L68.5877 57.1598L69.3582 56.8195L70.1088 56.4393L70.7792 56.069L71.3496 55.5486L71.7199 54.8782L71.89 54.1176L71.7899 53.4372L71.5498 52.8167L71.1895 52.2664L70.7092 51.796L70.0687 51.5759L69.4583 51.2857L68.8079 51.1156L68.1574 50.9554L67.517 50.7953L66.8565 50.6953L66.106 50.6352L65.3655 50.7053L64.6249 50.7553L63.9144 50.9755L63.224 51.2256L62.5335 51.5058L61.853 51.796L61.2626 52.2563L60.7823 52.7167L60.4921 53.3171L60.5121 53.9876L60.7022 54.678L61.0124 55.3285L61.5228 55.8488L62.1232 56.2491L62.8037 56.4493L63.5942 56.7395L64.3447 57.0997L64.1446 57.7802L63.8944 58.4507L63.5242 59.0411L63.1139 59.6115L62.6936 60.1819L62.0532 60.4721L61.3827 60.7322L60.6722 60.8423L59.9617 60.8323L59.2512 60.7923L58.8309 60.372L58.5807 59.7916L58.2205 59.2612L57.7902 58.6808L57.3199 58.1905L56.6994 58.6908L56.089 59.2312L55.9689 59.9517L56.099 60.6622L56.3192 61.3427L56.6694 61.9731L57.1898 62.4735L57.7502 62.9238L58.3806 63.264L59.0611 63.5142L59.7716 63.5942L60.4921 63.5342L61.2026 63.4741L61.903 63.3441L62.5635 63.0438L63.1939 62.7236L63.8244 62.3934L64.4148 61.9931L65.0152 61.4127L65.5556 60.7823L66.176 60.2519L66.2761 60.322L66.7864 60.9624L67.2067 61.5228L67.6671 62.0331L68.2475 62.4234L68.7778 62.8637L69.4083 63.1639L70.0787 63.3741L70.7592 63.4942L71.4597 63.5142L72.1802 63.4842L72.8907 63.3741L73.5912 63.1839L74.2316 62.8337L74.772 62.3634L75.2723 61.843L75.5726 61.1826L75.8027 60.5021L75.7827 59.7816V59.1812L75.4925 58.6408L74.9321 58.4507Z" fill="#FF804F"/>
<path d="M56.4493 26.5785L56.079 25.938L55.6987 25.3076L55.4486 24.6171L55.1784 23.9366L54.8682 23.3162L54.698 22.6257L54.3778 22.0153L54.1176 21.3649L53.7874 20.7544L53.4772 20.134L53.177 19.5136L52.9668 18.8431L52.5866 18.2527L52.3464 17.6022L52.1162 16.9418L52.0062 16.2613L51.756 15.5108L51.4057 14.8103L51.0955 14.0898L50.7853 13.3793L50.5552 12.7088L50.355 12.0284L50.0148 11.4079L49.7146 10.7775L49.3843 10.1471L48.9841 9.56665L48.4337 9.11634L47.8233 8.56596L47.513 8.94622L47.2629 9.67673L47.0927 10.4373L46.9326 11.1878L46.6725 11.9183L46.5324 12.6888L46.3422 13.3493L46.2522 14.0298L46.032 15.3907L45.7918 16.0512L45.7418 16.7416L45.6718 17.4221L45.5917 18.1026L45.5317 18.8131L45.4216 19.5336L45.4616 20.2541L45.4216 20.9646L45.3715 21.6851L45.2815 22.4056L45.2715 23.1261L45.2815 23.8466V24.5671L45.3015 25.3076L45.3715 26.0381L45.4316 26.7886L45.3515 27.5291L45.4116 29.0102L45.5016 29.7507L45.6017 30.4812L45.6918 31.2217L45.6217 31.9722L45.9019 32.5927L46.2522 33.1731L46.7925 33.5733L47.5531 33.4833L48.2736 33.123L48.894 32.6427L49.3543 32.0823L49.8346 31.5219L50.395 31.0516L50.9254 30.5512L51.5358 30.151L52.1362 29.7207L52.7267 29.3004L53.3371 28.9001L53.9675 28.5298L54.648 28.2697L55.3385 28.0195L55.9689 27.6792L56.159 27.1189L56.4493 26.5785Z" fill="#FF804F"/>
<path d="M77.4939 28.3197L78.1644 28.4398L78.8348 28.5298L79.4353 28.9501L80.0057 29.4105L80.546 29.9108L81.1064 30.3911L81.7068 30.8314L82.2672 31.3018L82.8376 31.7821L83.5381 32.0523L84.1485 32.4626L84.829 32.7728L85.5395 32.9129L86.0299 32.5626L86.5302 32.2124L86.5002 31.5419L86.6002 30.8515L86.6103 30.161L86.5602 29.4705L86.5402 28.78L86.5602 28.0895L86.5102 27.3991L86.5702 26.6485L86.5002 25.908L86.3801 25.1775L86.4001 24.427L86.3601 23.6865L86.17 23.016L86.19 22.3155L86.1099 21.635L85.9998 20.9546L85.8397 20.2741L85.8097 19.5836L85.7997 18.8931L85.5895 18.2227V17.5222L85.4194 16.8517L85.2993 16.1712V15.4708L85.0492 14.8203L85.0292 14.1198L84.849 13.4493L84.5989 12.7989L84.4488 12.1184L84.2886 11.448L84.1385 10.7275L83.9684 10.017L83.5481 9.40654L82.8677 9.12634L82.2472 9.59667L81.7068 10.1771L81.3766 10.8976L81.1064 11.6381L80.8863 12.3886L80.6361 13.0591L80.3359 13.7095L80.0657 14.37L79.8255 15.0405L79.6054 15.7209L79.3452 16.3914L79.085 17.0519L78.7448 17.6823L78.4646 18.3428L78.1544 18.9932L77.9042 19.6937L77.654 20.4042L77.3138 21.0747L76.9936 21.7551L76.6633 22.4356L76.3631 23.1261L76.0629 23.8066L75.7127 24.477L75.3924 25.1275L75.2524 25.848L75.4025 26.5585L75.6226 27.2489L76.143 27.7793L76.8134 28.0695L77.4939 28.3197Z" fill="#FF804F"/>
<path d="M57.2799 50.7153L57.52 50.0948L57.7402 49.4744L57.9803 48.7939L58.1204 48.0935L58.0604 47.383L57.9703 46.6725L57.7702 45.982L57.49 45.3315L57.1798 44.7111L56.6694 44.2408L56.009 44.0907L55.3285 44.1807L54.7681 44.581L54.3378 45.1214L54.0476 45.8919L53.9175 46.7025L53.7474 47.513L53.9075 47.5431V48.2636L53.9676 48.934L54.0876 49.5845L54.3678 50.1949L54.748 50.7253L55.2384 51.1656L55.7988 51.5058L56.4193 51.6259L56.9496 51.2657L57.2799 50.7153Z" fill="#FF804F"/>
<path d="M78.3245 45.6918L78.1844 45.0313L77.8041 44.4809L77.2437 44.1107L76.5933 43.9306L75.9528 44.3108L75.3524 44.7711L74.9722 45.4116L74.8421 46.1521L74.8721 46.9026L75.0322 47.6431L74.3818 48.1835L74.6219 48.934L74.772 49.6745L75.0822 50.375L75.5826 50.9454L76.143 51.4558L76.8935 51.6759L77.634 51.3657L78.1844 50.7953L78.4546 50.0548L78.5847 49.2643L78.6347 48.4737V47.7732L78.5847 47.0727L78.4746 46.3723L78.3245 45.6918Z" fill="#FF804F"/>
<path d="M75.7727 24.507L76.153 23.8566L76.3431 23.1161L76.7834 22.4856L76.9235 21.7251L77.3338 21.0847L77.664 20.4042L77.8642 19.6837L78.0543 19.0132L78.3345 18.3528L78.8048 17.7724L78.9549 17.0619L79.2852 16.4314L79.4253 15.7109L79.9056 15.1405L80.2558 14.5101V13.7496L80.576 13.1091L80.6961 12.3886L81.1965 11.7382L81.3366 10.9576L81.7168 10.2671L82.2972 9.75678L82.8076 9.21641L83.4581 9.4866L83.8183 10.097L83.9584 10.8075L84.1285 11.528L84.3187 12.1885L84.5188 12.8489L84.6389 13.5294L84.799 14.1999L85.0291 14.8603L85.1692 15.5308L85.3394 16.2113L85.2293 16.9218L85.6496 17.5622L85.7196 18.2427V18.9332L85.7797 19.6236L85.7096 20.3241L85.9098 20.9946L85.8397 21.7051L86.0899 22.3656V23.7565L86.3401 24.477L86.24 25.2275L86.3401 25.9681V26.7086L86.5302 27.4391V28.1296L86.4701 28.83V29.5205L86.25 30.9015V31.592L86.4001 32.2824L85.9898 32.7828L85.3794 32.9429L84.7289 32.6327L83.9884 32.5126L83.2679 32.2824L82.6375 31.8822L82.1972 31.2317L81.4466 30.9916L81.0264 30.3511L80.436 29.9008L79.7655 29.5606L79.3752 29.0202L78.7748 28.6699L78.1544 28.4498H77.4639L76.8635 27.9494L76.133 27.7793L75.5525 27.299L75.3224 26.5785L75.1823 25.838L75.4425 25.1375L75.7727 24.507ZM48.824 32.5827L48.2436 33.063L47.5631 33.5133H46.8426L46.2021 33.2331L45.8919 32.6127L45.6918 31.9722L45.5417 31.2417L45.4316 30.5012V29.7607L45.6017 29.0102L45.4316 28.2797V27.5392L45.2615 26.7986L45.4616 26.0481L45.5317 25.3076L45.2615 24.5671L45.3515 23.8566L45.2215 23.1361L45.4916 22.4156L45.3515 21.6951V20.9746L45.5117 20.2641L45.4316 19.5436V18.8131L45.5517 18.1026L45.6718 17.4321L45.7618 16.7516L45.8719 16.0712L45.972 15.3907L46.1621 14.7302L46.3022 14.0498L46.3723 13.3593L46.5023 12.6888L46.6224 11.9183L47.0027 11.2178L46.8826 10.3972L47.1028 9.65671L47.3429 8.9162L47.7632 8.42586L48.3636 9.12635L48.904 9.58667L49.1942 10.2471L49.7046 10.7575L49.9648 11.4179L50.1849 12.0884L50.6052 12.6688L50.6953 13.3893L51.0355 14.0998L51.3157 14.8303L51.756 15.4908L52.0262 16.2413L52.1563 16.9218L52.3764 17.5722L52.5265 18.2627L52.7067 18.9432L52.9969 19.5736L53.4272 20.144L53.8875 20.6944L53.9775 21.4149L54.1777 22.0854L54.608 22.6558L54.9883 23.2462L55.2284 23.8966V24.6872L55.7988 25.2175L56.039 26.0181L56.4092 26.6285L56.3492 27.2289L56.079 27.8093L55.4085 28.1796L54.698 28.3697L54.0976 28.79L53.3171 28.8701L52.7967 29.4305L52.2363 29.8908L51.5959 30.241L51.0755 30.7514L50.4451 31.1216L49.9447 31.652L49.5144 32.2524L48.824 32.5827ZM53.9775 48.2636L54.0376 47.513H53.7474L53.9976 46.7125L53.9375 45.8619L54.3478 45.1214L54.7881 44.601L55.3085 44.1307L56.009 43.9306L56.7195 44.1607L57.0897 44.7811L57.53 45.3115L57.7302 46.002L58.0804 46.6424L58.0003 47.393L57.9303 48.0834L58.0704 48.824L57.7202 49.4544L57.6201 50.1249L57.1598 50.6652L56.9496 51.2657L56.4092 51.5859L55.8489 51.3657L55.2584 51.1456L54.748 50.7253L54.4179 50.1549L54.2077 49.5445L54.0376 48.914L53.9775 48.2636ZM68.6778 67.617L68.0073 67.7671L67.3669 68.0573H66.6764L65.9859 68.2775L65.2954 68.0473L64.635 67.8772L63.9445 67.7171L63.294 67.4369L62.7737 67.0466L62.5035 66.4162L61.9631 65.9759L62.3834 65.3655L62.7937 64.715L63.4742 65.0052L63.9345 65.5456L64.715 65.8158L65.3955 66.136L66.156 66.0559L66.9566 66.2161L67.6571 65.8458L68.3475 65.5156L68.968 65.2454L69.3783 65.5956L69.6484 66.186L69.5484 66.8165L69.1881 67.3068L68.6778 67.617ZM71.4597 63.4441L70.7792 63.3341H70.0787L69.4583 63.0438L68.7478 62.9438L68.2174 62.4735L67.6971 62.0432L67.1467 61.6129L66.6664 61.0425L66.2161 60.362L66.126 60.1418L65.6056 60.8323L64.9752 61.3627L64.4648 62.0331L63.7644 62.3133L63.1339 62.6135L62.6035 63.1439L61.893 63.284L61.2226 63.5642L60.4821 63.3841L59.7716 63.5442L59.0711 63.4441L58.4407 63.1039L57.7702 62.8837L57.1798 62.4735L56.7495 61.9031L56.4192 61.2826L56.1791 60.6322L56.089 59.9417L56.139 59.2512L56.7695 58.7609L57.3199 58.2305L57.7802 58.6808L58.2405 59.2412L58.5908 59.7716L58.6808 60.442L59.2712 60.6422L59.9617 60.7322H60.6622L61.3627 60.6322L62.0932 60.5821L62.6436 60.1118L63.224 59.6915L63.4942 59.021L63.9145 58.4406L64.2647 57.8202V57.1397L63.5942 56.6794L62.7837 56.4493L62.1332 56.1791L61.4427 55.8989L60.9324 55.3685L60.6322 54.688L60.4621 54.0376L60.5821 53.3871L60.9224 52.8668L61.3527 52.4365L61.873 51.8961L62.4434 51.3757L63.224 51.2757L63.9545 51.1356L64.625 50.8153L65.3555 50.5952H66.116L66.8365 50.9354L67.537 50.7653L68.1374 51.1256L68.7878 51.2557H69.4783L70.1088 51.5058L70.7892 51.716L71.2496 52.2563L71.7299 52.7867L71.6498 53.5172L71.92 54.1677L71.86 54.9782L71.3897 55.6287L70.8493 56.2191L70.1188 56.5193L69.3783 56.9096L68.6478 57.3499L67.7671 57.5L68.0673 58.1705L68.4176 58.7509L68.8679 59.2712L69.3983 59.7215L69.6484 60.372L70.1088 60.8924L70.7892 61.0224L71.4497 61.1926L72.1102 60.9824L72.9307 60.8823L73.321 60.1718L73.6612 59.4313L74.0615 58.6208H74.9021L75.3924 58.8409L75.6126 59.3012L75.6726 59.8616V60.5621L75.5325 61.2526L75.2323 61.893L74.9121 62.5735L74.1616 62.8037L73.5512 63.1439L72.9007 63.4241L72.1902 63.6343L71.4597 63.4441ZM77.584 51.3057L76.8835 51.5659L76.143 51.4658L75.6526 50.8754L75.0522 50.4251L74.812 49.6745L74.702 48.924L74.3517 48.1635L74.9521 47.5931L74.832 46.9126L74.9922 46.1421V45.4016L75.4425 44.7911L75.9328 44.2007L76.6733 44.0206L77.2337 44.2808L77.9242 44.4209L78.2244 45.0413L78.5246 45.6718L78.3645 46.4123L78.6347 47.0827L78.6947 47.7732L78.5346 48.4537V49.2643L78.4646 50.0548L78.1343 50.7553L77.584 51.3057Z" fill="#FF804F"/>
<path d="M53.7174 71.87L53.7974 71.2195L53.8074 70.5391L53.7574 69.8486L53.5573 69.1981L53.0869 68.6578L52.7467 68.0673L52.6666 67.3769L52.3564 66.6864L52.0362 65.9959L51.706 65.3054L50.9755 64.9352L50.4751 64.3948L50.0748 63.7143L49.5145 63.194L48.7139 63.0338L48.0434 62.7236L47.373 62.3033L46.6825 61.9631L45.8519 61.9931L45.1714 61.6329L44.521 61.2126L43.8105 60.9424L43.07 60.7222L42.4395 60.412L41.8291 60.0418L41.1787 59.7816L40.5982 59.3713L39.9278 59.1611L39.2573 58.921L38.5869 58.7108L37.9764 58.3206L37.356 57.9503L36.6255 57.8202L35.7949 57.49L36.6455 57.0997L37.1859 56.5593L37.8864 56.2491L38.4968 55.8188L38.8771 55.1884L39.2573 54.628L38.8771 54.0276L38.4868 53.4672L37.8363 53.2971L37.1759 53.0469L36.4053 53.2771L35.7849 52.8468L35.0544 52.9268L34.424 52.5566L33.7635 52.2964L32.8529 52.2563L33.5433 51.4258L34.2839 51.2356L34.8743 50.8053L35.4146 50.305L35.945 49.7946L36.4754 49.3043L37.2159 49.0241L37.5161 48.2936L38.2166 47.9433L38.6069 47.3129L39.0972 46.7725L39.3874 46.052L39.9078 45.5417L40.4782 45.1114L40.9985 44.631L41.2087 43.9205L41.609 43.3602L41.9992 42.7798L42.0793 41.9792L42.4595 41.3087L42.9099 40.6883L43.5503 40.188L43.7004 39.4174L43.9906 38.7269L44.1007 37.9964L44.511 37.2659L44.2808 36.5054L44.3008 35.5747L43.8105 34.7942L44.1907 34.3639L44.2408 33.6634L44.0206 32.9929L44.0707 32.3025L43.9206 31.622L43.6604 30.9715L43.8105 30.221L43.7604 29.4805L43.6304 28.76L43.7204 28.0095L43.4702 27.299L43.6304 26.5485L43.3301 25.838L43.18 25.1475L43.4803 24.457L43.3001 23.7765L43.3902 23.0861L43.2501 22.4056L43.4803 21.7151L43.4202 21.0346L43.4002 20.3241L43.5203 19.6236L43.15 18.9031L43.4302 18.2027L43.5303 17.5022V16.0812L43.8405 15.4107L43.8505 14.6902L44.1307 14.0298L44.0006 13.2692L44.2408 12.5988L44.7011 11.9883L44.611 11.2278L45.0013 10.5273L45.0213 9.70675L45.5617 9.04629L45.7018 8.26575L45.9119 7.40515L46.022 6.66464L46.5324 6.09424L46.8526 5.45379L46.7725 4.64323L47.1528 3.8827L47.6732 4.61321L48.1335 5.25365L48.7939 5.71397L49.0341 6.50452L49.5645 7.06491L49.9748 7.64532L50.4151 8.21571L50.6653 8.88618L51.0655 9.46658L51.5459 10.007L51.8261 10.6574L52.0362 11.3479L52.2964 12.0184L52.8268 12.5287L53.197 13.1391L53.3871 13.8296L53.8174 14.4L53.9776 15.1205L54.4179 15.6809L54.8281 16.2713L55.0083 16.9918L55.1284 17.7223L55.3885 18.4028L55.8188 19.0032L56.2792 19.5936L56.2892 20.3742L56.5293 21.0546L56.8195 21.7251L57.2298 22.3355L57.5 23.016L57.7101 23.7065L57.8603 24.427L58.0204 25.1375L58.3806 25.7779L58.7809 26.3984L59.1011 27.2389L59.9917 27.249L60.6322 27.1889L61.2426 27.5592L61.9131 27.4691L62.5435 26.9788L63.3341 26.9187L63.9945 26.5685L64.685 26.1682L65.4755 26.0881L66.166 26.5385L66.9066 26.5685L67.577 26.1482L68.3676 26.0581L68.9079 26.6485L69.6184 26.6886L70.3389 26.7086L71.0795 26.6886L71.84 26.8287L72.6806 26.6986L72.8407 25.848L73.1309 25.1575L73.361 24.437L73.6312 23.7565L73.6913 22.976L73.9915 22.3055L74.2517 21.615L74.5519 20.9346L75.0622 20.3442L75.2524 19.6236L75.5125 18.9832L75.8928 18.3928L75.9028 17.6423L76.163 17.0018L76.7234 16.4915L76.7634 15.751L77.3238 15.2406L77.2838 14.4601L77.574 13.8296L77.8942 13.2192L78.2244 12.6088L78.7348 12.0784L79.065 11.478L79.1551 10.6774L79.5153 10.027L80.0257 9.45658L80.2959 8.74608L80.8362 8.20571L81.2865 7.60529L81.6068 6.91481L82.0471 6.30439L82.5774 5.78402L83.0177 5.1736L83.5581 4.65324L84.0585 4.18291L84.4688 4.85338L84.779 5.48381L84.789 6.23434L84.9091 6.92482L85.4494 7.45519L85.5995 8.18569L85.7897 8.89619L86.28 9.51662L86.3901 10.2471L86.31 11.0477L86.5502 11.7382L86.8804 12.4086L87.2307 13.0791L87.4308 13.7896L87.2907 14.5701L87.3908 15.3006L87.5909 16.0111L88.0613 16.6716L88.1313 17.4021L88.0713 18.1626L88.0412 18.9031L88.3415 19.6036L88.2514 20.3542L88.6917 21.0546L88.5216 21.8052L88.7317 22.5057L88.7017 23.2161L88.7517 23.9166V24.6271L88.6517 25.3276L88.4115 26.0181L88.6217 26.7386L88.5116 27.4391L88.5216 28.1396L88.1813 28.8301L88.3915 29.5405L88.4615 30.251L88.5216 31.0416L88.4816 31.8321L88.1313 32.6327L88.5116 33.3632L88.8418 33.5133L87.9412 34.1738L88.5116 34.8743L88.0613 35.5547L87.7611 36.2452L87.7911 37.0157L87.5209 37.7362L88.0012 38.3267L88.1213 39.0372L88.2314 39.7677L88.5516 40.4081L88.9519 40.9985L89.3321 41.5989L89.6524 42.2394L90.2628 42.6597L90.623 43.2901L91.2235 43.7604L91.6738 44.3709L92.2041 44.9012L92.8146 45.3415L93.2549 45.9219L93.7052 46.4923L94.1655 47.0727L94.6458 47.6231L95.3663 47.9033L95.8667 48.4437L96.4871 48.834L97.0275 49.3143L97.5979 49.7646L98.1383 50.1949L98.6887 50.5952L99.2691 50.9755L99.8394 51.2356L99.2591 51.5158L98.6186 51.806L97.8981 51.8661L97.2777 52.2563L96.5171 52.1563L95.9067 52.5566L95.2363 52.7667L94.6759 53.187L93.8953 53.4472L94.1255 54.2577L93.9554 54.9382L94.2856 55.6787L95.1062 55.8989L95.7366 56.4793L96.4171 56.6194L95.8967 56.9596L95.3864 57.52L94.6658 57.7201L94.0955 58.1705L93.435 58.4507L92.9246 59.011L92.1641 59.1111L91.5737 59.5114L91.0133 60.0418L90.3629 60.362L89.6724 60.6022L88.9219 60.6322L88.1913 60.6122L87.691 61.1926L87.0205 61.3827L86.4201 61.763L85.6996 61.803L84.9891 62.0031L84.2786 62.1833L83.5381 62.3534L82.9677 62.8537L82.4173 63.3541L81.957 63.9445L81.3666 64.4048L80.8462 64.9452L80.486 65.6156L80.0957 66.2061L79.5253 66.6764L79.4953 67.4669L78.9649 67.9973L78.8148 68.6978L78.6847 69.3983L78.3945 70.0487L78.1243 70.7192L78.2945 71.4597L78.2044 72.1502L78.1544 72.8507L78.0043 73.2209L78.8048 73.271L79.5954 72.9908L80.3859 73.0208L81.2265 73.371L81.1565 72.6906L80.8462 72.0201L81.0664 71.3196L81.3266 70.6692L81.7169 70.0888L81.8269 69.3682L82.1371 68.7378L82.5074 68.1674L82.8076 67.537L83.2179 66.9866L83.7483 66.5263L84.1085 65.9158L84.859 65.6056L85.5795 65.3555L86.0999 64.675L86.8504 64.4849L87.5409 64.1746L88.3214 64.0946L89.0019 63.7844L89.6223 63.3541L90.4629 63.4541L90.9833 62.7837L91.7138 62.6035L92.3643 62.2533L93.1148 62.0932L93.8253 61.873L94.3456 61.2426L95.1862 61.2726L95.7566 60.7523L96.4471 60.4721L96.9575 59.9517L97.4978 59.5214L98.2784 59.3613L98.7287 58.7909L99.3591 58.4406L99.4592 57.7302L99.9695 57.3199L100.03 56.7495L99.7294 56.2191L99.6693 55.4586L99.3091 54.8482L100.02 54.688L100.75 54.638L101.441 54.3578L102.301 54.3978L102.832 53.6973L103.402 53.137L103.712 52.4965L103.802 51.776L103.782 51.0255L103.092 50.6052L102.661 50.1449L102.191 49.5845L101.521 49.2843L101.12 48.6338L100.46 48.2936L99.9595 47.7232L99.129 47.6231L98.7587 46.9026L98.1783 46.4823L97.5278 46.0821L96.8974 45.6618L96.4571 45.0513L95.8267 44.621L95.3964 44.0006L94.946 43.4002L94.3456 42.9499L93.8953 42.3394L93.5051 41.689L92.7245 41.4088L92.1441 40.5382L91.9039 39.8377L91.7338 39.1072L91.4236 38.4367L91.3035 37.7162L91.1434 37.0057L91.0634 36.2652L91.2835 35.5447L90.9833 34.7942L91.3636 34.0737L91.4536 33.3432L91.1934 32.6027L91.3335 31.8722L91.0634 31.1317L91.3936 30.4011L91.3435 29.6706L91.3235 28.9301L91.2635 28.1996L91.0934 27.4691L91.0533 26.7386L91.3335 25.9981L91.0634 25.2676L91.4836 23.8066L91.3836 23.076L91.4636 22.3455L91.1134 21.635L91.3736 20.8945L91.2235 20.174L91.1134 19.4535L91.1834 18.713L91.0934 17.9925L90.9233 17.282L90.6931 16.5815L90.583 15.861L90.2528 15.1906L90.3028 14.44L90.2128 13.7195L90.1427 12.989L89.9826 12.2785L89.5323 11.6481L89.3622 10.9376L89.4622 10.1571L89.172 9.4866L88.7317 8.85616L88.6217 8.13566L88.5816 7.43517L88.3014 6.82475L87.711 6.33441L87.7911 5.58388L87.5909 4.94344L87.1406 4.41307L86.8104 3.78263L86.8504 3.12217L86.7003 2.49173L86.5602 1.81126L86.0299 1.35094L85.6496 0.79055L85.0992 0.370258L84.4688 0.300209L83.6882 0L83.0278 0.480334L82.4874 0.890619L81.7569 1.13079L81.4967 1.82127L80.9063 2.25157L80.6861 2.94205L80.3559 3.55247L80.0357 4.1729L79.4853 4.64323L79.085 5.25365L78.7048 5.86408L78.2444 6.42447L77.7641 6.98486L77.4539 7.68535L77.3038 8.46589L76.7134 9.00626L76.6733 9.80682L76.2931 10.4273L75.8027 10.9876L75.4025 11.5981L75.1923 12.3086L74.762 12.909L74.6819 13.6695L74.4918 14.38L73.9114 14.9204L73.8013 15.6509L73.4711 16.3013L73.361 17.0318L73.0508 17.6923L72.9007 18.4128L72.5405 19.0533L72.0501 19.6337L72.0401 20.4042L71.7899 21.0847L71.1895 21.625L71.0394 22.3455L70.8493 23.046L69.3583 22.986L68.6678 23.3763L67.9273 23.2762L67.2268 23.6164L66.4762 23.4663L65.7557 23.6164L65.0453 23.7966L64.3147 23.8366L63.5842 23.8466L62.8737 24.0567L62.1332 23.9266L61.3527 24.1268L61.3026 23.3062L60.6822 22.8259L60.6222 22.1054L60.1719 21.545L59.8616 20.9246L59.8416 20.174L59.3513 19.6337L59.2712 18.9132L58.931 18.3027L58.5007 17.7423L58.1404 17.1319L57.8603 16.4915L57.9103 15.7209L57.7802 15.4207L57.4099 14.5401L57.1798 13.8696L56.6394 13.3793L56.4493 12.6888L56.069 12.0984L55.5386 11.5981L55.3885 10.8876L54.8682 10.3772L54.0676 9.23642L54.0276 8.45588L53.6073 7.88548L53.3171 7.25505L52.8468 6.65463L52.4865 5.98416L52.0662 5.35372L51.4958 4.83336L51.0555 4.21293L50.5151 3.68256L50.1549 3.00209L49.5545 2.51175L49.2743 1.77123L48.6839 1.27088L48.1635 0.760529L47.5631 0.170118L46.7826 0.510355L46.032 0.570397L45.5517 1.1508L45.0513 1.78124L44.4509 2.37165L44.0006 3.08214L44.0707 3.8827L43.5903 4.49312L43.4402 5.20362L43.4702 5.96415L43.15 6.62461L42.7197 7.22503L42.4595 7.88548L42.5796 8.64601L42.1193 9.24643L42.0993 9.95693L42.0092 10.6474L41.639 11.2778L41.5689 11.9683L41.2587 12.6088L41.1787 13.2993L41.2487 14.0298L41.1386 14.7903L40.8885 15.5208L40.6683 16.2613L40.5982 17.0318L40.6483 17.7724L40.6183 18.5029L40.6783 19.2434L40.6483 19.9739L40.3881 20.7044L40.268 21.4349L40.6183 22.1854L40.4582 22.9159L40.5582 23.6565L40.218 24.387L40.3381 25.1175L40.6183 25.848L40.228 26.6085L40.4882 27.269L40.5982 27.9494V28.6299L40.5882 29.3204L40.6983 29.9909L40.9485 30.6513L41.1186 31.3318L40.7083 32.0123L41.0586 32.7128L40.9885 33.4333L41.0586 34.1738L40.8885 34.9143L40.9985 35.6548L41.0386 36.3953L40.6283 37.1158L40.7083 37.8563L40.5482 38.5668L40.6283 39.2973L40.0479 39.8077L39.9978 40.5282L39.4675 41.0085L39.3874 41.759L38.9971 42.3194L38.3067 42.6597L37.9664 43.2401L37.4561 43.7004L37.1759 44.3408L36.6555 44.7811L36.1752 45.2615L35.7749 45.8119L35.3846 46.3923L34.7142 46.6725L34.3239 47.2729L33.9136 47.8633L33.2231 48.1135L32.6127 48.4437L32.2725 49.1242L31.7321 49.5545L30.9916 49.7246L30.5813 50.325L29.9709 50.6552L29.3404 51.1256L29.0202 51.8561L29.0602 52.6366L28.72 53.3471L28.8601 54.1076L28.9902 54.9482L29.7207 55.1283L30.3912 55.2084L31.0616 55.2784L31.7321 55.3685L32.4226 55.2885L33.023 55.5686L32.7528 56.2191L32.3025 56.8095L32.0923 57.51L31.8622 58.2005L32.3025 58.6408L32.8228 59.011L33.4633 59.1912L33.8736 59.7015L34.484 59.9517L34.9543 60.352L35.4647 60.7122L35.955 61.1325L36.6155 60.9824L37.2759 61.3527L38.0465 61.4627L38.7269 61.813L39.3774 62.2233L40.1279 62.3834L40.8484 62.6436L41.4388 63.194L42.2494 63.234L42.7898 63.8544L43.5103 64.0546L44.2508 64.2147L44.9613 64.4648L45.6618 64.725L46.1821 65.3354L46.8126 65.7057L47.383 66.176L48.0134 66.5563L48.5638 67.0566L49.1442 67.4569L49.3143 68.1974L49.9648 68.5677L50.1449 69.2582L50.4251 69.8786L50.6152 70.519L50.8254 71.1595L50.9354 71.8199L51.0355 72.4904V73.2409L51.746 72.9908H52.4365L53.117 73.0708L53.8475 73.281L53.7174 71.87Z" fill="#FF804F"/>
</svg>
