<svg width="600" height="330" viewBox="0 0 600 330" fill="none" xmlns="http://www.w3.org/2000/svg">
<path d="M113.088 197.061C112.784 196.936 112.492 196.783 112.217 196.604C110.122 194.891 110.184 193.374 110.837 190.925C111.491 188.476 113.512 186.886 115.115 185.072C117.349 182.579 119.538 180.091 121.817 177.658C124.816 174.434 128.027 171.393 130.852 168.029C133.159 165.29 136.281 163.878 139.14 162.021L141.899 160.23C144.892 159.505 147.656 157.714 151.119 157.675L156.218 156.09C155.559 155.482 155.307 155.041 154.972 154.975C153.297 154.612 151.622 154.383 149.974 154.048C148.387 153.768 146.815 153.405 145.266 152.961C143.075 152.351 140.936 151.571 138.866 150.629C135.909 149.163 133.035 147.537 130.255 145.758C124.737 142.244 120.27 137.529 116.076 132.592C115.07 131.415 114.361 130.048 112.797 129.535C112.202 129.333 111.586 129.196 110.96 129.128C109.972 129.033 108.966 129.083 107.984 128.96C107.554 128.815 107.154 128.596 106.8 128.313C103.583 128.363 97.4957 123.588 97.3058 120.821L96.457 120.146C96.4288 119.724 96.3634 119.306 96.2615 118.896C96.0896 118.572 95.944 118.234 95.8259 117.886C95.6137 116.955 95.3792 116.034 95.2116 115.097C95.1279 114.643 95.1279 114.178 95.2116 113.724C95.9097 110.338 96.3285 106.851 99.1543 104.319C100.679 102.952 102.042 101.406 103.454 99.967C102.41 95.0632 103.315 90.3937 103.985 85.6851C104.348 82.0589 105.694 78.7618 107.369 75.4926C106.498 75.5707 105.694 75.5986 104.912 75.7269C104.13 75.8552 103.432 75.8831 102.997 75.0295C102.505 74.0532 101.746 73.0825 102.634 72.0058C103.521 70.9291 104.404 69.6515 105.56 68.8593C108.726 66.6724 112.038 64.6807 115.305 62.6277C115.767 62.39 116.244 62.185 116.735 62.014C115.822 61.6556 114.942 61.2189 114.104 60.7086C112.961 59.9003 111.914 58.9645 110.982 57.9192C109.933 56.6918 110.547 55.1297 112.099 54.5718C112.825 54.3208 113.501 53.8578 114.238 53.7573C116.087 53.4951 117.958 53.378 119.823 53.1995C120.235 53.1468 120.653 53.2126 121.029 53.3891L125.542 54.1255C123.274 51.1297 124.285 47.7601 123.866 44.4518C124.497 43.5815 125.206 42.6164 125.977 41.5675C127.009 42.0591 128.001 42.6318 128.943 43.2802C129.719 43.9162 130.506 44.396 130.691 45.8019C130.925 47.5536 132.092 49.1827 132.896 50.9567C133.248 49.4393 133.544 48.1673 133.829 46.8898C133.897 46.6809 133.911 46.4581 133.868 46.2426C133.153 43.8772 134.583 42.2482 135.828 40.5801C136.332 39.9849 136.877 39.4257 137.459 38.9064C140 38.3095 140.151 40.4518 140.977 41.6233L141.173 44.7531C141.418 45.1715 141.731 45.6792 142.05 46.2315C144.792 41.6345 147.902 37.4671 153.548 35.4085C154.034 36.1226 154.777 36.8255 154.989 37.64C155.145 38.2314 154.565 39.0013 154.347 39.7042C154.181 40.1748 154.14 40.6805 154.23 41.1714C155.905 39.5592 157.53 37.8855 159.256 36.3457C160.981 34.806 162.679 33.1211 165.159 32.223L167.392 35.1574L164.6 40.3737L164.796 40.608L171.648 35.1797L171.715 35.3192L174.072 34.3876L175.914 34.5884V37.707L176.825 38.5159L175.222 38.7335L175.367 39.1909L173.178 42.4546L173.468 42.7279C174.2 42.3765 174.904 41.9636 175.658 41.6903C178.573 40.634 181.493 39.6019 184.42 38.594C186.095 38.0361 187.536 38.5271 188.256 39.8883L186.112 44.5634C189.854 41.562 193.724 39.3081 198.889 39.6875L199.264 39.9999C199.431 40.1393 199.593 40.2844 199.61 40.3011C199.744 41.4169 199.856 42.3932 199.973 43.3528L199.649 43.191L196.806 47.5202L204.066 46.2091C205.775 45.1826 210.371 45.6959 213.253 47.9219C213.102 48.6527 213.125 49.6513 212.695 50.3933C212.265 51.1353 211.332 51.7266 210.6 52.4017L209.796 52.2622L208.791 53.378C212.27 53.5007 220.211 57.5454 220.982 59.5538L219.189 61.5566L217.145 62.1702L217.039 62.5552C221.68 64.0328 225.71 66.9852 228.516 70.9625C229.074 71.738 229.571 72.5581 230.057 73.3056L229.633 75.1913C228.594 76.3071 227.488 75.2917 226.248 75.1913C229.797 80.9286 231.331 87.6829 230.61 94.3881L230.258 99.3477C231.508 100.304 232.705 101.329 233.843 102.416C237.367 106.098 238.311 110.5 237.256 115.415C236.738 117.952 235.585 120.317 233.905 122.288C232.002 124.501 229.434 126.039 226.583 126.673C223.735 127.387 220.915 127.17 217.916 127.103L217.654 128.743C215.674 132.542 213.168 136.042 210.209 139.142C207.339 142.283 203.949 144.676 200.464 147.013C195.74 150.277 190.172 151.638 184.867 153.574L185.023 153.915C182.862 154.076 180.7 154.216 178.55 154.439C178.271 154.467 178.042 154.93 177.54 155.449C178.935 155.763 180.346 156.002 181.767 156.163C185.118 156.33 188.083 157.591 191.116 158.863C194.556 160.308 197.169 162.768 199.822 165.189C202.374 167.533 204.898 169.898 207.35 172.341C211.298 176.28 215.169 180.314 219.078 184.264C220.669 185.859 221.116 187.611 220.999 189.887C220.941 191.349 220.586 192.784 219.955 194.105C219.72 194.607 219.396 195.07 218.994 195.778C220.345 197.257 221.82 198.796 223.205 200.414C224.808 202.278 226.354 204.197 227.879 206.127C228.666 207.12 229.27 208.269 230.113 209.195C233.425 212.794 236.909 216.236 240.115 219.924C242.259 222.389 244.957 223.712 247.883 224.839C249.277 225.381 250.611 226.065 251.865 226.88C254.83 228.811 256.467 231.544 256.249 235.171C256.137 237.023 254.931 238.005 253.066 237.96C252.853 237.96 252.647 237.96 252.591 237.96C252.665 239.116 252.652 240.276 252.552 241.43C252.294 242.57 251.951 243.689 251.524 244.777L249.022 245.821L247.202 245.067C246.169 246.981 244.18 247.126 242.527 246.964C241.344 246.847 239.512 246.797 239.009 244.973C238.085 244.704 237.231 244.238 236.505 243.607C235.779 242.976 235.199 242.195 234.804 241.318C233.989 239.567 232.838 237.876 232.481 236.035C231.961 233.402 230.297 231.712 228.572 230.038C226.533 228.074 224.232 226.378 222.16 224.459C218.985 221.484 215.863 218.449 212.795 215.354C209.617 212.141 206.54 208.827 203.407 205.569C202.983 205.128 202.486 204.76 202.028 204.359L201.721 204.593C202.037 208.141 202.354 211.687 202.67 215.232L202.525 215.265C202.737 216.599 202.944 217.937 203.156 219.271H203.033C203.206 220.42 203.407 221.558 203.553 222.707C203.62 223.221 203.553 223.756 203.581 224.269C203.955 227.879 204.39 231.477 204.731 235.087C205.016 238.072 205.189 241.062 205.44 244.047C205.546 245.318 205.809 246.585 205.842 247.857C205.887 249.122 205.809 250.389 205.608 251.639C205.356 253.09 204.128 253.787 202.218 253.704C202.218 255.344 202.14 256.989 202.218 258.618C202.385 261.453 202.611 264.281 202.894 267.104C203.111 269.308 203.452 271.506 203.737 273.704C203.81 274.262 203.91 274.819 203.955 275.377C204.122 277.419 203.508 278.195 201.492 278.63C201.04 278.73 200.626 279.02 200.174 279.11C199.616 279.155 199.056 279.155 198.499 279.11L198.716 281.642H198.644V287.824H198.811V294.379L198.566 294.424L199.124 295.205C199.219 297.057 199.308 298.747 199.392 300.438H199.588V305.459L202.017 305.57L202.815 306.24L203.932 305.944C209.104 306.357 213.097 308.929 216.392 312.488C216.805 315.01 218.737 317.113 217.682 319.958L222.283 320.176L222.747 319.361L223.707 320.025L225.941 319.467C226.176 319.724 226.433 319.992 226.5 320.064H232.14V320.014H236.786L237.345 319.456L238.317 320.209L238.345 319.952H241.399L241.868 319.545L244.521 319.791L244.549 319.841H250.692L251.602 319.026L252.853 320.075L256.126 319.584L256.199 319.852L256.98 319.294C260.052 320.304 263.062 319.294 265.999 319.852L267.155 318.77C266.379 317.375 265.581 315.98 264.827 314.586C263.04 311.283 261.476 307.947 260.566 304.231C259.884 301.1 259.619 297.892 259.778 294.691C259.884 290.44 261.934 286.881 263.598 283.205C264.48 281.23 265.569 279.266 265.988 277.185C266.424 275.009 266.156 272.722 266.223 270.451C266.335 266.423 266.223 262.373 266.675 258.384C266.999 255.539 267.965 252.738 268.881 250.016C269.847 247.132 271.193 244.381 272.187 241.508C273.181 238.635 274.304 235.578 274.84 232.521C275.482 228.861 273.868 225.859 271.338 223.115C268.809 220.37 265.246 219.377 262.012 217.882C259.359 216.649 256.595 215.65 253.875 214.534C253.345 214.322 252.758 214.317 252.228 214.066C251.402 213.653 250.648 213.11 249.994 212.459L247.012 210.322L248.771 206.484L243.041 205.43C242.081 203.003 242.645 200.788 244.32 199.432C246.911 197.335 249.637 195.382 252.071 193.117C253.975 191.313 255.691 189.32 257.193 187.17C258.373 185.589 259.241 183.798 259.75 181.892C260.393 179.103 259.935 176.18 260.13 173.362C260.348 170.328 259.7 167.454 259.505 164.509C259.192 159.873 259.761 155.276 259.784 150.662C259.784 149.2 260.258 147.739 260.566 146.283C261.124 143.666 261.683 141.044 262.302 138.444C262.543 137.451 262.995 136.52 263.297 135.543C263.816 133.87 264.179 132.14 264.821 130.522C265.252 129.394 265.901 128.361 266.731 127.482C267.035 127.132 267.416 126.856 267.844 126.675C268.271 126.495 268.735 126.415 269.198 126.442C269.662 126.469 270.113 126.602 270.517 126.831C270.921 127.059 271.267 127.378 271.528 127.761C273.762 130.64 275.962 133.568 277.923 136.637C280.095 140.034 281.977 143.616 283.993 147.108C284.211 147.482 284.49 147.822 284.797 148.258C284.736 148.47 284.652 148.754 284.635 148.815C286.45 152.933 288.198 156.894 289.907 160.782L303.584 159.365C306.331 152.67 308.61 145.781 312.279 139.119C312.653 138.422 313.178 137.446 313.826 136.213C314.518 135.214 315.401 133.981 316.199 132.76C317.651 130.528 318.751 127.962 321.181 126.528C321.789 126.171 322.644 126.227 323.381 126.093C325.738 127.209 327.38 129.92 326.855 131.448C327.743 133.68 328.686 135.672 329.368 137.764C331.875 145.479 333.361 153.385 333.277 161.524C333.199 167.198 333.428 172.888 332.959 178.523C332.758 180.955 333.646 182.768 334.394 184.771C334.556 185.206 335.137 185.48 335.511 185.848C338.057 188.381 340.537 190.986 343.167 193.441C344.526 194.576 345.948 195.632 347.428 196.604C348.26 197.212 349.059 197.87 349.913 198.445C351.751 199.667 351.164 201.357 350.746 202.941C350.399 204.247 349.182 204.554 348.026 204.805C346.97 205.039 345.909 205.251 344.921 205.463L346.228 208.225C345.669 209.184 345.373 209.982 344.82 210.456C343.541 211.572 342.246 212.811 340.738 213.558C336.904 215.566 332.962 217.363 328.932 218.942C326.827 219.717 324.654 220.286 323.029 221.826C321.857 222.986 320.868 224.318 320.097 225.776C319.137 227.516 318.003 229.302 318.422 231.461C318.633 232.854 318.997 234.219 319.505 235.533C321.153 239.165 322.94 242.741 324.727 246.312C326.581 250.016 327.519 253.977 328.173 258.027C328.355 259.494 328.461 260.968 328.491 262.446C328.759 264.616 328.988 266.066 329.105 267.522C329.301 270.016 329.306 272.543 329.619 275.004C329.915 277.341 330.412 279.673 332.087 281.525C332.237 281.729 332.361 281.95 332.456 282.184C332.1 283.046 332.045 284.002 332.3 284.899C332.556 285.796 333.106 286.581 333.863 287.126C335.103 288.069 336.416 287.305 337.359 286.769C339.732 285.474 341.963 283.936 344.016 282.178C346.166 280.175 348.148 278 349.941 275.673C350.628 274.82 350.79 273.536 351.153 272.566C350.919 272.008 350.751 271.628 350.522 271.098C352.655 271.238 351.566 269.202 352.549 268.482C352.376 268.175 352.209 267.891 352.047 267.6H352.293L352.683 265.062H352.561C353.281 263.154 353.934 261.224 354.733 259.349C355.654 257.201 356.648 255.059 359.15 254.328C359.843 252.934 359.843 252.934 361.943 253.079V252.521C362.691 252.314 364.059 253.335 364.4 254.418C365.316 257.296 366.232 260.175 366.433 263.221C366.506 263.56 366.626 263.886 366.79 264.192H366.41C366.41 265.559 366.41 266.931 366.41 268.303C366.41 270.356 366.522 272.393 365.695 274.373C365.364 275.369 365.165 276.405 365.104 277.453C364.819 279.723 363.987 280.566 361.501 280.845L359.754 279.288L361.49 277.782L362.082 276.382C361.954 275.969 361.831 275.556 361.714 275.177C363.858 269.905 363.104 260.075 360.172 257.324C359.552 258.345 358.748 259.249 358.413 260.303C357.721 262.479 357.296 264.738 356.738 266.959C356.442 268.142 356.079 269.308 355.788 270.49C355.425 271.963 355.129 273.447 354.761 274.92C354.62 275.324 354.433 275.709 354.202 276.069C353.571 277.252 352.935 278.435 352.32 279.589C351.203 280.895 350.131 282.267 348.942 283.534C346.971 285.725 344.572 287.49 341.894 288.722C340.531 289.325 339.398 290.435 338.164 291.322C337.626 291.76 337.008 292.088 336.343 292.287C336.343 294.29 336.287 296.293 336.343 298.295C336.527 303.383 336.075 308.337 333.26 312.767C332.702 313.654 332.082 314.508 331.518 315.395C331.177 315.952 330.881 316.51 330.401 317.319C331.674 317.13 332.635 317.035 333.584 316.834C335.662 316.382 337.733 315.863 339.811 315.395C344.178 314.413 347.629 311.774 350.824 308.901C353.03 306.931 354.884 304.583 356.967 302.452C357.832 301.553 358.821 300.778 359.759 299.941L354.828 300.538L353.471 299.115C353.767 297.442 355.247 297.319 356.325 296.839C357.866 296.153 359.603 295.885 360.681 294.368C360.842 294.139 361.239 294.083 361.479 293.637L353.661 294.602C352.544 293.592 352.717 292.845 353.426 292.086C355.102 290.29 357.414 289.938 359.631 289.436C361.356 289.051 363.026 288.644 364.422 287.472C364.798 287.234 365.203 287.046 365.629 286.914L365.182 286.463C363.758 286.769 362.345 287.138 360.91 287.361C358.24 287.774 355.559 288.175 352.868 288.432C351.678 288.549 351.008 287.762 351.326 286.574C351.674 285.316 352.221 284.122 352.946 283.037C354.208 281.124 355.571 279.333 355.738 276.9C355.833 275.227 356.185 274.925 357.726 273.966C359.067 274.379 358.726 275.64 358.843 276.56C358.977 277.676 358.843 278.792 358.899 279.907C358.99 280.276 359.139 280.628 359.34 280.951L356.911 284.086L357.045 284.359L368.348 280.242L368.259 279.824L369.303 280.253L370.42 279.5C372.28 280.705 372.447 281.425 371.537 283.31C371.286 283.904 371.117 284.529 371.034 285.168C370.532 287.857 368.75 289.955 367.684 292.421C367.55 292.733 367.522 293.09 367.399 293.403C367.239 294.028 366.969 294.619 366.6 295.149C364.88 296.933 363.574 299.074 362.775 301.419C362.61 301.961 362.357 302.472 362.026 302.931C358.246 307.757 354.113 312.226 349.115 315.846C347.641 316.912 346.451 318.418 344.513 318.731C342.575 319.043 340.771 319.289 338.582 319.601L347.071 320.549C348.037 319.646 350.26 319.434 351.79 320.265L352.789 319.651L353.968 320.114V319.78L356.866 319.64L357.503 320.198L359.134 320.047C359.781 318.932 360.809 320.109 361.926 319.908C362.546 319.289 363.328 319.556 364.316 319.763C365.807 320.075 367.41 319.846 368.996 320.103C369.258 319.885 369.515 319.662 369.778 319.434L371.755 320.248L372.738 319.69L374.547 319.83V319.885L377.898 320.137V320.019H379.763V320.226L385.61 319.902C386.67 320.3 387.812 320.427 388.933 320.273C390.054 320.12 391.119 319.689 392.032 319.021C392.49 319.517 392.943 320.019 393.401 320.522L393.49 320.148L398.516 319.562C397.438 312.014 403.442 308.851 407.345 308.466L410.791 307.685L410.869 307.958L414.644 307.668C414.717 302.597 412.561 297.754 413.12 292.404L412.662 291.668C412.092 286.119 411.534 280.575 410.987 275.037H410.568C410.707 274.686 410.852 274.34 410.992 273.988H410.78C410.568 271.723 410.35 269.458 410.138 267.238L398.767 264.867C397.36 265.425 395.718 265.14 394.333 263.478C393.49 261.681 393.602 259.572 393.864 257.492C394.333 253.715 395.054 249.966 395.634 246.194C395.964 244.086 396.165 241.954 396.528 239.851C396.807 238.233 397.299 236.655 397.595 235.037C397.947 233.14 398.187 231.226 398.483 229.296L399.27 228.342C399.158 227.946 399.041 227.539 398.907 227.059L399.667 226.367L399.203 225.491C399.829 222.64 400.437 219.857 401.052 217.073L401.286 217.129V214.188L402.174 210.495C402.174 210.428 402.034 210.055 401.923 209.681L402.247 209.725C402.805 206.036 403.364 202.35 403.922 198.668L403.525 198.506C403.051 199.237 402.565 199.957 402.107 200.699C401.426 201.815 400.767 202.93 400.097 204.046C398.108 207.393 396.187 210.741 394.11 214.027C392.798 216.13 391.273 218.099 389.899 220.163C388.95 221.603 388.123 223.126 387.191 224.582C386.587 225.525 385.867 226.401 385.23 227.327C384.432 228.498 383.661 229.692 382.874 230.869C381.813 232.601 381.119 234.532 380.835 236.543C380.506 238.367 380.277 240.298 379.495 241.932C378.216 244.554 376.524 246.953 373.91 248.515C372.699 249.224 372.196 248.164 371.498 247.461C371.01 247.88 370.485 248.254 369.929 248.577C367.751 249.609 364.344 248.376 363.227 246.139C362.758 245.162 362.244 244.51 361.083 244.281C359.485 243.968 358.62 241.887 358.687 240.376C358.877 235.723 360.988 232.063 364.316 228.972C367.913 225.681 371.004 221.876 373.486 217.681C375.843 213.67 378.35 209.764 380.824 205.815C382.293 203.472 383.89 201.206 385.292 198.83C386.459 196.844 387.364 194.707 388.492 192.693C389.782 190.389 391.195 188.146 392.557 185.876C392.641 185.731 392.703 185.569 392.775 185.424C391.871 184.655 391.008 183.84 390.19 182.98C388.168 180.637 388.246 179.321 390.279 177.067C394.316 172.495 398.751 168.288 403.531 164.498C405.91 162.657 408.524 161.122 411.059 159.477C411.338 159.298 411.796 159.41 412.014 159.399L414.376 158.439L414.315 158.238L423.072 155.482C423.099 155.131 423.133 154.74 423.183 154.199L419.352 153.875V153.658L418.582 154.004C413.835 152.994 409.255 152.196 405.246 149.892C401.236 147.588 397.494 145 393.484 142.439C393.591 144.191 393.691 145.786 393.792 147.393L393.618 147.443C393.585 148.09 393.551 148.743 393.512 149.39C393.437 149.993 393.398 150.601 393.395 151.209C393.473 152.816 392.423 153.792 390.765 153.652C388.849 153.496 386.934 153.34 385.013 153.267C383.237 153.206 381.461 153.267 379.015 153.267C377.473 153.73 360.809 152.682 359.558 151.46C358.766 151.437 357.978 151.347 357.201 151.192C355.241 150.634 353.292 149.965 351.36 149.396C350.545 149.161 349.651 149.195 348.852 148.921C346.853 148.252 344.876 147.504 342.91 146.729C341.9 146.327 341.894 145.055 342.821 144.112C344.893 141.965 347.088 139.917 348.964 137.63C353.131 132.645 356.447 127.01 358.782 120.949C359.619 118.768 359.899 116.374 360.692 114.176C361.95 110.517 362.908 106.761 363.557 102.946C364.02 100.503 364.065 97.9753 364.472 95.5207C364.849 93.2847 365.353 91.0719 365.98 88.893C367.064 85.0714 368.661 81.3504 369.331 77.4619C370.04 73.3224 372.079 69.7686 373.369 65.9025C373.518 65.3702 373.716 64.8529 373.961 64.3572C374.949 62.6277 375.854 60.8369 376.943 59.1744C380.528 53.7071 384.253 48.3403 389.229 44.0222C391.731 41.8576 394.182 39.6372 397.271 38.2314C399.002 37.4448 400.51 36.1839 402.152 35.1909C402.771 34.8748 403.413 34.6062 404.073 34.3876C404.682 34.0528 405.329 33.6623 406.011 33.3387C407.53 32.5436 409.096 31.843 410.702 31.2411C413.611 30.2759 416.571 29.4782 419.536 28.6915C420.385 28.4628 421.312 28.4963 422.212 28.1337L423.005 28.4238L427.69 27.9607L437.938 28.5186V23.1294C435.849 22.8058 433.738 22.4544 431.622 22.1475C430.192 21.9925 428.807 21.5533 427.55 20.8558C426.293 20.1583 425.188 19.2166 424.3 18.0861C422.921 16.379 422.871 14.6551 422.575 12.8085C422.496 12.3399 422.396 11.8713 422.239 11.0289C423.273 9.20459 424.311 7.04558 425.652 5.09298C427.195 2.99205 429.315 1.38355 431.756 0.462525C433.28 -0.162306 435.179 0.0329535 436.91 0.0162169C440.467 -0.0228351 443.349 1.68987 445.695 4.09994C446.935 5.36119 447.779 6.95707 448.124 8.69134C448.341 10.7738 448.163 12.8785 447.599 14.895C447.337 15.9717 446.287 16.909 445.46 17.7905C444.343 18.9955 443.092 20.0834 441.903 21.2159L442.21 21.6231C442.623 21.3832 443.048 21.1657 443.444 20.8979C446.181 19.0513 448.884 17.1824 452.329 16.8811C454.876 16.6635 456.747 17.757 458.26 19.6705C458.51 19.9209 458.686 20.2357 458.768 20.5799C459.014 23.5813 459.595 26.6553 457.294 29.2383C456.99 29.6109 456.712 30.0042 456.462 30.4154C456.423 30.4768 456.462 30.5828 456.462 30.4879C458.595 31.4475 460.673 32.3513 462.722 33.3164C463.56 33.7069 464.325 34.2369 465.19 34.6051C468.39 36.8925 472.087 38.5103 474.913 41.6847L475.55 41.7182C477.37 43.4867 479.185 44.9706 480.66 46.7391C483.452 50.0864 486.378 53.3557 488.651 57.0265C492.699 63.5198 495.701 70.6075 497.548 78.0309C498.553 82.1147 499.781 86.137 500.72 90.2375C501.278 92.7758 501.407 95.4035 501.77 97.9865C502.149 100.659 502.618 103.32 502.965 105.992C503.188 107.666 503.205 109.395 503.4 111.091C503.596 112.787 503.903 114.517 504.149 116.229C504.517 118.796 504.802 121.379 505.266 123.928C505.629 126.043 506.148 128.129 506.634 130.216C507.242 132.849 507.795 135.499 508.549 138.087C509.02 139.495 509.624 140.855 510.353 142.149C510.912 143.264 511.604 144.258 512.14 145.145C512.051 149.239 507.952 151.253 504.83 151.655C503.194 151.867 501.557 152.107 499.91 152.213C497.715 152.386 495.515 152.447 493.32 152.592C492.739 152.68 492.154 152.728 491.566 152.737C490.45 152.849 489.288 153.005 488.143 153.055C487.545 153.056 486.95 152.965 486.378 152.788C484.932 152.86 483.486 152.961 482.045 152.994C480.632 152.972 479.22 153.069 477.823 153.284L477.354 152.882H472.886V142.009C471.211 143.025 469.725 143.984 468.184 144.854C465.28 146.483 462.599 148.525 459.248 149.362C457.925 149.697 456.719 150.478 455.401 150.908C453.233 151.613 451.029 152.205 448.8 152.682C446.689 153.106 444.528 153.239 442.383 153.518V155.192C448.738 155.795 454.256 158.366 459.405 162.082C461.91 163.846 464.192 165.907 466.201 168.219C467.877 170.177 470.111 171.672 472.009 173.429C473.126 174.467 474.4 175.471 475.176 176.749C475.751 177.811 475.959 179.032 475.768 180.224C475.595 181.34 474.735 182.328 473.958 183.784C474.405 184.637 474.958 185.898 475.684 187.053C477.532 189.993 479.543 192.838 481.341 195.812C482.961 198.484 484.346 201.296 485.904 204.001C486.524 205.084 487.345 206.055 488.02 207.103C488.534 207.918 488.992 208.777 489.556 209.541C491.164 211.773 492.845 213.893 494.431 216.108C495.09 217.028 495.548 218.083 496.157 219.042C496.473 219.436 496.76 219.852 497.017 220.286C497.754 221.235 498.48 222.183 499.251 223.12C501.881 226.423 505.321 228.85 508.577 231.444C511.978 234.144 513.296 237.581 513.089 241.737C513.089 242.133 513.089 242.523 513.089 242.724C512.118 244.365 511.414 246.183 508.99 244.61C508.706 245.726 508.432 246.641 508.242 247.561C507.572 250.607 504.126 252.738 501.39 249.793C501.258 249.687 501.114 249.599 500.96 249.531C499.575 251.232 498.229 251.567 496.213 250.769C494.548 250.157 493.137 249.006 492.203 247.5C491.723 246.719 491.153 245.994 490.684 245.324C490.282 243.517 489.902 241.793 489.517 240.069L489.824 239.985L489.081 238.92L489.483 238.791C489.076 237.413 488.925 235.868 488.199 234.696C486.831 232.521 485.122 230.562 483.553 228.515C482.168 226.707 480.688 224.961 479.403 223.087C475.997 218.094 472.657 213.045 469.318 208.024C468.042 206.245 466.889 204.381 465.866 202.445C465.283 201.043 464.461 199.752 463.437 198.629C463.214 198.4 463.214 197.954 463.107 197.603L462.465 198.116C462.694 199.377 462.918 200.637 463.163 201.898C463.8 205.201 464.446 208.502 465.101 211.801C465.66 214.506 466.179 217.212 466.777 219.896C467.659 223.695 468.614 227.472 469.569 231.26C470.127 233.597 470.803 235.913 471.306 238.261C472.11 242.066 472.819 245.893 473.539 249.709C473.947 251.807 474.455 253.893 474.707 256.008C474.919 257.947 474.986 259.899 474.908 261.849C474.869 263.137 473.83 263.684 472.674 263.913C471.412 264.158 470.138 264.342 468.871 264.554C466.726 264.923 464.587 265.335 462.432 265.67C460.991 265.877 459.528 265.927 458.081 266.089C457.568 266.171 457.061 266.287 456.562 266.434C456.049 275.249 456.562 283.991 455.116 291.919C454.859 296.131 454.641 299.668 454.435 303.205C454.334 304.973 454.256 306.742 454.161 308.666C456.026 308.181 457.177 308.984 458.495 309.888C459.522 310.591 460.879 310.898 461.706 311.958C462.964 313.444 463.784 315.25 464.074 317.174C464.196 318.251 464.453 319.305 464.632 320.326L470.479 320.683V320.912L471.931 320.148L472.819 320.667L473.835 320.025L474.718 320.722H477.639V320.644H481.202L481.257 320.918L482.223 320.075C484.117 321.152 486.01 320.516 487.909 320.109L491.064 320.951L491.885 320.466L493.214 320.879L494.13 320.594L495.766 321.029L496.883 319.83C497.106 320.287 497.291 320.678 497.52 321.152L498.843 320.248C499.804 322.134 500.993 319.846 502.272 320.276L502.909 321.353L504.327 320.494L505.411 321.782L506.69 320.99L507.924 321.375L509.208 320.337L509.89 320.99L513.609 321.286L514.486 320.912L515.575 321.47L516.401 320.879L518.758 321.47L519.316 321.185L524.627 321.425L527.57 321.732L527.609 322.017L529.05 320.962L529.826 321.554C531.284 321.554 532.658 321.554 534.032 321.554C535.78 321.554 537.528 321.442 539.27 321.47C540.415 321.47 541.56 321.715 542.705 321.766C543.939 321.821 545.173 321.766 546.737 321.766L547.597 322.424L549.272 321.76L550.797 322.831C551.595 321.911 552.416 321.604 553.31 322.53L554.505 321.827L555.493 322.463L556.722 321.905L557.61 322.463L558.671 322.005C560.285 323.01 561.854 322.279 563.379 321.894L564.669 322.675L566.048 321.966L567.807 322.92L568.611 321.911L569.946 322.602L571.063 322.045L572.482 322.736L573.833 322.145V322.457H581.914C581.914 322.569 581.914 322.68 581.914 322.792L583.081 322.173L583.874 322.814H590.531C590.531 322.932 590.531 323.043 590.531 323.16L591.017 322.781L594.658 323.11L595.73 322.552C595.73 322.658 595.73 322.764 595.73 322.87C596.465 323.018 597.187 323.229 597.886 323.501C598.595 323.841 599.461 324.243 599.796 324.867C600.007 325.286 600.057 325.767 599.934 326.219C599.811 326.672 599.525 327.062 599.131 327.317C598.657 327.685 598.204 328.086 597.696 328.499L596.484 327.841L594.993 328.589L593.982 327.004C593.926 327.729 593.898 328.075 593.854 328.734L591.799 327.439L590.576 328.404L589.783 327.484L588.878 328.137L587.901 327.434L587.169 328.315L585.259 327.255C585.226 327.657 585.198 327.975 585.147 328.577L582.718 327.093L582.461 327.59H578.351V327.389L575.034 327.623C575.034 327.735 575.034 327.847 575.034 327.958L573.973 327.289L572.683 328.036L571.387 327.227L570.326 327.919C569.84 327.718 569.282 327.495 568.651 327.244L567.796 328.003L566.863 327.305C565.92 326.876 564.931 328.421 564.172 326.909L563.267 327.93L562.094 327.255L560.709 327.813L560.151 327.211L557.599 327.088V326.77L556.057 327.64L555.225 327.082L554.304 327.919L552.79 327.043L552.751 327.272H550.26L550.177 326.932C550.009 327.144 549.836 327.356 549.562 327.707L548.328 326.881C547.77 327.439 547.061 327.752 546.58 326.725C544.799 327.584 542.671 327.423 541.621 326.368L540.996 327.255L540.303 326.96H537.416C537.416 326.893 537.416 326.826 537.416 326.759L532.686 327.172L532.619 326.742L531.452 327.4L530.821 326.842H528.257V326.552L527.38 327.11L527.297 326.714L524.393 327.121L523.555 326.346L522.254 327.105L521.193 326.675V326.937L518.646 326.764V326.731L516.228 326.558V326.736C515.569 326.736 514.91 326.837 514.251 326.809C513.218 326.764 512.185 326.669 511.157 326.563C510.725 326.484 510.298 326.38 509.878 326.251C509.696 326.433 509.479 326.577 509.241 326.673C509.002 326.769 508.746 326.817 508.488 326.812C508.231 326.807 507.977 326.751 507.742 326.646C507.506 326.541 507.295 326.389 507.12 326.201L505.483 326.826L504.567 326.173H499.787V325.939L495.492 326.435C495.353 326.312 495.129 326.112 494.867 325.877L489.684 326.686L488.322 326.061V326.368L483.1 326.078V325.838L481.771 326.569C481.319 325.799 479.364 325.788 477.946 326.508C477.717 326.223 477.471 325.922 477.225 325.609L472.892 326.017V326.335L471.909 325.849C471.786 326.084 471.669 326.29 471.479 326.642L470.362 325.816L468.072 325.983L467.285 326.569L466.168 325.793L465.051 326.351L464.347 325.721L463.376 326.452L462.426 325.816L461.661 326.279C461.661 326.162 461.661 326.045 461.622 325.927L454.312 326.759V327.071L453.362 326.441L453.318 326.725C452.648 326.647 451.983 326.535 451.307 326.508C450.715 326.508 450.118 326.602 449.526 326.597C448.727 326.597 447.923 326.457 447.13 326.485C445.968 326.53 444.812 326.669 443.863 326.747L440.032 326.223L439.971 326.508L438.949 325.821L437.832 326.575C436.865 326.446 435.726 325.777 434.956 327.261L433.593 326.296L431.962 326.58C431.906 326.781 431.834 327.038 431.806 327.138L428.796 326.58L428.718 326.904L427.573 326.24L426.456 326.731L425.897 326.29L421.156 326.575L421.1 326.279L420.229 327.082L419.453 326.703L417.565 327.361C417.191 327.01 416.878 326.714 416.649 326.508L414.605 326.323C414.047 326.775 413.254 327.244 412.874 326.19L407.451 326.597L401.884 325.247L401.75 325.587L401.135 324.522L400.314 325.637L398.857 325.124L398.354 325.827L397.617 325.409H395.299V325.247H388.911L387.649 325.805L386.649 324.884L385.258 325.565L384.275 325.124L383.46 325.715L382.712 324.812L379.322 325.37L378.685 324.867H376.306L374.111 325.085C374.111 324.985 374.111 324.89 374.111 324.795L371.403 325.353L370.576 324.577C369.119 324.533 367.751 325.961 366.449 324.784L363.551 325.425L362.942 324.912C361.434 325.113 360.228 325.336 359.033 325.414C357.838 325.492 356.598 325.414 355.096 325.414L354.431 324.628L353.393 325.743L351.081 324.923L350.221 325.392C350.221 325.297 350.187 325.197 350.176 325.102L345.306 325.531L345.273 325.855L344.681 325.33L342.838 325.464L341.967 326.217L340.414 325.448L339.297 325.966L338.219 325.035L337.102 325.531V325.303L334.087 325.743L333.316 324.84C332.723 325.094 332.113 325.307 331.49 325.475C330.933 325.539 330.371 325.539 329.815 325.475C328.614 325.475 327.408 325.436 326.207 325.475C325.497 325.573 324.796 325.72 324.107 325.916L323.465 325.587L322.024 326.614L321.32 325.643L319.5 326.608L318.757 325.554L317.126 326.669L316.305 325.626L315.261 326.117L314.619 325.598L313.022 326.563L312.312 325.604L309.464 326.084L309.403 325.821L308.286 326.569L306.851 325.961L305.589 326.681L303.913 325.671C303.049 326.066 302.142 326.362 301.21 326.552C300.562 326.614 299.864 326.167 298.976 325.877L297.552 326.323L296.502 325.621L294.732 325.721L293.917 326.759L292.582 325.9H283.507V325.704L282.435 326.262L281.759 325.749L279.157 326.033C278.459 326.898 277.682 326.831 276.476 326.195C275.594 325.727 274.242 326.106 272.868 326.106L272.115 325.247L269.507 325.994L266.854 325.481C265.463 324.125 263.894 325.481 262.291 325.799C261.995 325.448 261.733 325.118 261.403 324.728C260.465 325.42 259.549 326.987 258.488 324.957L256.891 325.805L256.221 325.174L252.25 324.918C251.133 326.63 248.899 324.985 247.224 325.972L246.794 325.381C242.918 324.985 239.272 326.496 235.485 325.732L233.324 326.58C233.145 326.268 232.978 325.966 232.9 325.838L230.699 325.325L230.75 325.475L224.819 325.799V325.905H223.199V326.139L222.188 325.581L220.876 326.329L220.116 325.42L218.916 326.033L218.017 325.548L217.118 326.201L215.37 325.085C213.136 326.759 210.617 325.95 208.004 326.078L206.954 326.803L205.976 325.922L204.072 326.859L203.564 325.905L201.805 326.854L200.688 326.078L199.521 326.842L196.924 326.173L196.477 327.043L195.17 326.485L193.573 327.339C192.702 326.692 191.697 326.084 190.574 327.043L189.72 326.329L187.698 327.032L186.732 326.363L185.615 326.92L184.431 326.067L182.152 326.301L181.209 325.548C180.65 326.145 180.131 327.277 179.36 325.721C178.634 326.575 177.875 326.753 177.182 325.643L175.423 326.809L174.865 325.648C173.898 326.87 173.027 326.764 172.312 325.481L169.933 325.693L169.47 326.379L168.844 325.849L163.165 326.145V326.195H160.987L159.116 325.989V326.145L154.553 326.92C151.935 326.407 149.242 326.407 146.623 326.92L146.171 326.363L143.965 326.971L143.038 326.496L141.681 327.317L140.497 326.558L139.419 327.339L138.498 326.586L136.409 326.965L136.108 327.294L132.835 327.082L132.779 327.35C132.528 327.144 132.271 326.937 131.953 326.669C131.394 327.339 130.774 328.165 130.059 326.842C129.099 328.047 128.546 328.053 127.033 326.842L125.653 327.612L125.056 326.714L123.017 326.971V327.11L121.448 327.3L119.097 326.987L116.215 327.835L113.105 327.584C113.004 327.473 112.703 327.138 112.289 326.692L111.507 327.964L110.603 327.25H108.229V326.948L106.185 327.735L105.175 327.177L104.616 327.735L104.543 327.4L101.751 327.668V328.086L100.874 327.473L98.8472 328.527L98.1491 327.411H93.9495V327.211L92.7935 327.874L91.5146 327.01C91.3806 327.322 91.2186 327.685 91.0064 328.164L90.2748 327.328C88.2365 328.443 86.1423 328.008 83.7632 327.757L82.8083 328.36L81.4456 327.372L80.0439 328.198L76.7266 327.283V327.428L74.7218 327.573C74.4816 328.036 74.1633 328.879 73.3982 327.964L71.7675 328.131L68.0594 328.36C67.674 328.828 67.674 328.828 66.5906 327.835L64.4238 328.884C64.1669 328.421 63.9882 328.098 63.7872 327.768L61.1177 328.789L61.3579 328.086H59.7551C59.4982 329.13 58.8504 329.046 58.0797 328.315L57.376 328.873L57.3314 328.131C56.6319 328.181 55.9362 328.274 55.2483 328.41C54.6794 328.628 54.0901 328.789 53.4892 328.89C51.8138 330.614 51.4564 327.774 50.1831 327.992L49.5074 328.884L48.9992 329.291L48.3793 327.467L47.9213 327.874L48.4798 329.18L47.0501 329.291L46.9608 327.752L44.1685 328.734L43.7161 328.505L40.4268 328.895C39.9968 329.498 39.3099 329.269 38.5951 328.404L37.6792 329.152L36.6237 328.594L34.8925 329.23L34.334 328.672H31.8768L31.821 328.778L29.5983 328.427L29.1013 329.068L27.9844 328.51L26.1638 328.795L25.7505 329.353C24.8291 329.314 24.0472 328.036 23.2766 329.291L22.2602 329.007C20.2385 329.269 18.5743 329.615 16.7426 328.633L15.8602 329.587H12.4704L1.94902 330L1.58602 328.483L0 327.824L4.38949 324.973L5.88057 325.866C6.1598 325.425 6.39994 325.046 6.99749 324.098L7.98596 325.503L11.0687 324.812L17.7702 324.287V324.572L18.2951 324.215H25.1306V324.148L32.0332 323.746L32.0835 324.086L33.0943 323.439L34.267 324.036L35.9424 323.216L37.2771 323.774L38.3158 323.411L39.1815 324.192L39.8013 323.372H42.8673V323.149L43.6212 323.478L51.0934 322.842L51.3391 323.3L55.4996 323.038V322.937H67.2943V322.814L71.8904 323.099L72.231 322.803H74.8893V322.63L78.2903 322.865V322.731H80.5521V323.015L81.4121 322.692H84.5842V322.558L86.9297 322.764L88.0187 321.721L88.7782 322.558L90.7216 322.134C92.168 322.29 93.486 323.25 94.6308 322.273H99.2381L99.2828 322.524L100.154 321.905L101.271 322.547L102.555 321.732L103.544 322.485L104.426 321.927L105.258 322.558L106.001 321.442C106.141 321.81 106.264 322.117 106.342 322.329L108.732 322.184L109.391 321.76L111.306 322.318L111.82 321.621L111.91 321.972L116.07 321.581C116.377 320.427 116.696 319.238 117.075 317.832L116.556 317.347C117.317 314.105 119.248 311.257 121.979 309.347C124.648 307.467 127.826 306.731 131.098 306.295L131.852 305.375L132.505 305.832L135.901 305.509V299.991H135.94V294.368C137.409 292.856 134.616 290.636 135.996 288.789C135.895 286.496 135.795 284.354 135.7 282.211L135.504 282.267C135.611 281.681 135.722 281.101 135.879 280.231L131.874 279.98C131.316 279.528 130.473 278.942 129.713 278.306C129.585 278.19 129.481 278.05 129.407 277.894C129.334 277.738 129.291 277.569 129.283 277.397C129.35 275.545 129.177 273.603 129.674 271.857C130.233 269.826 130.188 267.818 130.322 265.793C130.579 261.843 130.88 257.893 131.137 253.676L129.306 253.118C128.468 248.13 129.406 235.265 130.093 232.961L129.657 231.946H129.853C130.015 230.417 130.182 228.889 130.344 227.36H130.277C131.148 220.442 132.025 213.525 132.913 206.495L128.92 206.261C128.177 207.221 127.245 208.414 126.329 209.608C125.96 210.066 125.514 210.462 125.106 210.886C124.899 211.072 124.709 211.275 124.536 211.494C123.375 213.274 122.302 215.115 121.068 216.844C119.901 218.484 118.561 220.002 117.338 221.603C115.288 224.297 113.334 227.059 111.195 229.703C110.335 230.786 109.095 231.561 108.168 232.599C106.861 234.055 105.688 235.622 104.454 237.14L104.784 237.291L103.315 241.564L103.46 241.62C103.103 242.708 102.701 243.784 102.388 244.883C101.209 249.001 97.7247 251.974 93.4525 251.846C92.6204 251.846 92.0172 251.701 91.5537 250.992C91.3316 250.688 91.0831 250.404 90.811 250.144C89.6438 250.44 88.6944 250.903 87.7618 250.875C85.3716 250.797 84.3719 249.932 83.8526 247.589C83.729 247.037 83.4971 246.516 83.1702 246.054C82.8433 245.592 82.4279 245.2 81.9482 244.9C79.3458 243.042 79.4966 242.15 79.7144 239.561C80.016 235.823 82.4676 233.726 85.1705 231.812C88.1974 229.664 91.4141 227.779 94.3907 225.569C97.3673 223.36 99.5788 220.242 101.26 216.799C102.22 214.83 103.65 213.095 104.856 211.221C105.716 209.887 106.532 208.52 107.403 207.198C109.29 204.359 111.206 201.541 112.278 198.272C112.3 197.954 112.591 197.714 113.088 197.061ZM294.414 293.018H294.481C294.657 294.576 294.75 296.142 294.76 297.71C294.637 300.443 294.202 303.171 294.14 305.899C294.112 308.008 294.559 310.117 294.699 312.231C294.816 313.782 294.788 315.344 294.838 316.901C294.838 317.403 294.933 317.899 295.011 318.692L298.921 318.223C299.138 316.845 299.423 315.629 299.479 314.401C299.635 311.991 299.652 309.57 299.758 307.149C299.864 304.728 299.937 302.34 300.177 299.947C300.406 297.715 300.819 295.484 301.177 293.252C301.875 288.878 302.545 284.499 303.355 280.147C303.522 279.5 304.36 278.942 304.824 278.384C306.22 279.26 306.968 280.119 306.867 281.548C306.778 282.847 306.867 284.159 306.733 285.453C306.387 288.917 305.957 292.371 305.577 295.829C305.142 299.807 304.689 303.79 304.299 307.774C303.986 310.959 303.74 314.15 303.5 317.336C303.405 318.513 303.338 319.69 303.249 320.951C304.969 321.637 306.32 320.36 307.755 320.393C308.314 319.004 308.99 317.749 309.297 316.415C310.268 312.209 311.028 307.958 312 303.757C312.971 299.556 314.083 295.283 315.233 291.076C315.631 289.935 316.122 288.829 316.702 287.768C318.98 287.595 320.27 288.521 319.924 289.838C319.578 291.154 319.148 292.32 318.846 293.576C317.763 298.039 316.758 302.463 315.658 306.892C314.876 310.011 314.976 313.308 313.547 316.304C313.156 317.118 313.396 318.229 313.334 319.356C315.524 319.528 317.445 319.824 319.36 319.796C321.148 319.702 322.93 319.515 324.699 319.238C325.816 317.565 326.67 316.07 327.648 314.658C331.255 309.408 333.791 303.919 331.97 297.319C331.934 297.191 331.934 297.056 331.97 296.928C332.702 294.697 331.624 292.7 330.853 290.792C329.368 287.071 327.648 283.45 326.051 279.779C325.759 279.148 325.548 278.483 325.425 277.799C325.185 276.181 325.045 274.552 324.867 272.928C324.783 272.37 324.928 271.762 324.867 271.171C324.66 268.181 324.515 265.174 324.135 262.2C323.811 258.943 323.251 255.714 322.46 252.538C321.695 249.798 320.226 247.254 319.109 244.61C317.545 240.891 315.998 237.172 314.468 233.452C314.172 232.92 313.995 232.33 313.949 231.723C314.155 227.89 315.144 224.236 317.501 221.19C319.461 218.652 321.449 216.041 325.14 215.611C326.737 215.427 328.217 214.367 329.815 213.965C333.255 213.095 336.237 211.343 339.169 209.458C339.699 209.112 340.185 208.704 340.894 208.174C339.219 207.544 337.572 207.198 337.035 205.776C337.136 204.955 337.209 204.392 337.287 203.745C339.638 201.664 342.989 201.803 345.759 200.398C344.541 199.622 343.43 199.003 342.408 198.244C339.615 196.124 336.857 193.937 334.64 191.159C333.923 190.33 333.151 189.551 332.328 188.827C330.01 186.595 329.105 183.6 327.86 180.816C328.212 179.516 328.564 178.199 328.977 176.671L328.625 175.717L329.401 174.634L328.954 174.579C328.954 173.044 328.904 171.505 328.954 169.97C329.049 165.892 329.513 161.797 329.228 157.747C328.684 150.647 327.136 143.66 324.632 136.994C324.074 135.46 323.409 133.976 322.739 132.341C322.495 132.515 322.26 132.701 322.035 132.899C319.248 135.755 316.95 139.05 315.233 142.651C313.29 146.556 311.687 150.595 309.967 154.595C308.978 156.888 308.029 159.203 307.108 161.524C306.7 162.562 306.398 163.65 306.074 164.632C301.305 165.323 301.305 165.323 299.904 164.152L296.804 164.57C294.956 163.672 292.895 164.877 290.605 165.859C289.684 165.803 288.762 165.686 287.841 165.714C287.43 165.77 287.012 165.671 286.67 165.437C286.327 165.203 286.084 164.85 285.987 164.447C284.11 159.549 282.39 154.567 280.162 149.825C277.995 145.2 275.354 140.787 272.768 136.369C271.869 134.829 270.534 133.58 269.233 131.99L267.34 136.843C267.049 137.189 267.15 137.68 267.033 138.115C266.625 139.582 266.15 141.027 265.692 142.478C264.262 147.061 263.576 151.843 263.66 156.643C263.693 158.958 263.587 161.279 263.715 163.588C263.849 166.071 264.19 168.537 264.425 171.008C264.581 172.615 264.715 174.222 264.871 175.957L264.408 176.57C264.576 176.959 264.719 177.358 264.838 177.764C264.933 178.194 264.905 178.646 264.989 179.075C265.687 182.74 262.861 185.151 261.671 188.13C261.063 189.642 259.89 190.969 258.818 192.247C256.115 195.427 253.328 198.607 249.631 200.838C249.335 201.011 249.168 201.396 248.793 201.87C251.301 202.462 253.501 202.986 255.707 203.488C257.243 203.84 257.706 204.498 257.472 206.227L253.06 209.402C254.59 210.043 255.757 210.518 256.902 211.025C259.075 211.996 261.219 213.017 263.397 213.971C265.072 214.713 266.792 215.399 268.501 216.085C269.54 216.504 270.702 216.705 271.634 217.285C274.155 218.773 276.117 221.046 277.219 223.756C278.04 225.848 279.218 227.717 279.067 230.289C278.749 235.689 276.906 240.599 275.007 245.497C273.332 249.793 271.612 254.1 270.947 258.624C270.389 262.306 270.735 266.111 270.741 269.865C270.741 272.242 270.919 274.613 270.903 276.99C270.903 277.743 270.344 278.496 270.344 279.249C270.344 281.548 269.037 283.299 267.971 285.135C266.094 288.354 264.006 291.417 263.978 295.417C263.95 301.141 264.922 306.546 268.016 311.445C269.198 313.444 270.486 315.378 271.874 317.241C272.991 318.647 274.209 320.181 276.37 319.969C277.247 319.901 278.118 319.776 278.978 319.595C281.106 319.093 281.77 318.301 281.419 316.153C280.687 311.473 279.821 306.814 278.995 302.15C278.838 301.263 278.609 300.387 278.436 299.506C278.409 298.611 278.282 297.722 278.057 296.856C277.269 294.412 276.381 291.997 275.538 289.603C275.248 288.778 275.019 287.88 275.901 287.372C276.895 286.814 278.023 286.814 278.727 287.841C279.525 289.023 280.231 290.265 280.838 291.556C281.809 293.717 282.444 296.015 282.72 298.368C283.111 300.945 284.105 303.433 284.462 306.016C285.021 310.039 285.277 314.111 285.652 318.162C285.747 319.238 285.797 320.315 285.875 321.459C287.724 321.459 289.315 321.459 290.6 320.092L290.415 318.803H290.739C291.08 311.551 289.622 304.298 290.181 297.046C290.086 296.159 290.119 295.272 290.08 294.39C290.03 293.219 289.924 292.047 289.84 290.875C289.756 289.704 289.639 288.616 289.622 287.484C289.622 286.981 289.968 286.468 289.929 285.977C289.823 284.516 289.589 283.065 289.444 281.609C289.298 280.153 289.929 279.199 291.677 278.568C292.085 279.126 292.856 279.684 292.973 280.359C293.336 282.502 293.409 284.694 293.682 286.859C293.872 288.359 294.241 289.843 294.464 291.322C294.489 291.895 294.472 292.469 294.414 293.04V293.018ZM113.451 103.766C113.344 104.088 113.265 104.418 113.216 104.754C113.133 105.964 112.474 106.388 111.295 106.388C109.519 106.388 107.799 106.282 106.448 105.088C105.918 105.427 105.357 105.715 104.772 105.948C102.65 106.561 101.461 108.051 100.623 109.992C99.3889 112.832 100.126 115.571 100.975 118.288C101.364 119.355 101.991 120.32 102.807 121.111C104.027 122.415 105.543 123.407 107.227 124.002C108.912 124.597 110.715 124.779 112.485 124.531L115.701 122.918C117.075 125.328 118.17 127.476 119.477 129.479C123.529 135.315 128.843 140.168 135.024 143.677C136.573 144.583 138.181 145.382 139.838 146.071C142.215 147.046 144.653 147.864 147.137 148.52C150.474 149.364 153.856 150.018 157.268 150.478C157.837 150.514 158.393 150.664 158.903 150.92C159.412 151.176 159.865 151.532 160.233 151.967V159.778L159.038 160.71C159.06 161.622 159.309 162.515 159.761 163.309C160.213 164.102 160.855 164.771 161.629 165.256C165.538 167.443 169.408 167.75 173.256 165.005C174.719 163.962 175.222 162.924 174.742 161.217C174.649 160.745 174.581 160.268 174.541 159.789C173.524 158.512 173.39 157.558 173.563 151.666C174.122 150.4 175.205 150.244 176.412 150.087C179.316 149.714 182.309 149.49 185.056 148.587C189.351 147.181 193.74 145.887 197.471 143.097C199.146 141.859 201.14 141.083 202.793 139.833C208.573 135.465 212.577 129.669 215.833 123.281C216.336 122.299 217.291 121.546 218.151 120.559L220.412 122.684C223.233 122.902 226.036 122.651 228.387 121.01C232.129 118.427 233.938 114.874 233 110.193C232.548 107.917 231.643 105.959 229.571 104.865C227.371 103.705 225.355 105.261 223.222 105.373V105.713L222.105 105.155L220.295 105.568C219.703 104.24 219.15 103.019 218.346 101.222L199.66 83.2751L199.303 83.5094C200.554 86.9292 203.184 89.886 203.212 93.9084L200.325 94.84C196.367 93.7757 192.726 91.7697 189.714 88.9934C187.156 86.6447 184.688 84.2067 182.164 81.819C181.499 81.1941 180.801 80.6028 179.963 79.8552C179.93 80.3015 179.874 80.4466 179.919 80.5526C180.846 82.8436 181.776 85.1328 182.711 87.4202C183.046 88.2179 183.001 88.8539 182.102 89.2668C181.647 89.5194 181.212 89.8067 180.801 90.1259C177.64 89.3895 174.53 88.4522 171.977 86.416C171.452 86.3546 170.95 86.416 170.637 86.2319C168.113 84.5582 165.494 83.0631 163.645 80.5414C163.031 79.7046 162.037 79.1411 161.216 78.4493L161.071 78.7673L158.58 79.3252C154.805 86.1816 149.131 90.9962 141.19 92.8205C140.717 92.5697 140.194 92.4286 139.659 92.4077C139.436 92.4486 139.206 92.4371 138.988 92.3741C138.77 92.3111 138.57 92.1983 138.403 92.0446C138.236 91.8909 138.108 91.7006 138.027 91.4886C137.947 91.2766 137.917 91.0488 137.939 90.8233C137.856 88.1287 137.939 85.4229 137.939 82.7228C137.939 81.925 138.051 81.1272 138.112 80.3294C137.663 80.7008 137.271 81.137 136.951 81.6237C134.823 84.4578 132.919 87.5038 129.92 89.5401C127.647 91.0799 126.513 93.635 124.196 95.2417C121.303 97.2445 118.957 100.023 116.344 102.433C115.567 103.147 114.841 104.051 113.451 103.766ZM210.935 183.103C211.22 181.692 210.025 181.178 209.26 180.42C207.171 178.428 205.049 176.475 202.989 174.456C200.682 172.224 199.118 169.139 195.857 167.923C195.687 167.866 195.546 167.743 195.466 167.583C194.818 165.814 193.193 165.061 191.764 164.196C190.088 163.175 188.631 161.34 186.179 162.099C186.123 162.316 186.051 162.567 185.983 162.813C185.285 165.468 184.917 168.269 183.102 170.473C181.929 171.89 180.745 173.401 179.26 174.422C177.459 175.637 175.496 176.593 173.429 177.262C171.72 177.82 169.833 177.926 168.012 178.077C166.566 178.199 165.013 178.395 163.673 177.998C161.728 177.346 159.857 176.494 158.088 175.454C154.447 173.485 151.432 170.852 150.024 166.807C149.499 165.295 149.231 163.694 148.835 162.076C148.575 162.137 148.32 162.213 148.07 162.305C143.976 164.074 139.888 165.837 136.605 169C135.259 170.3 133.606 171.287 132.277 172.604C130.367 174.501 128.624 176.57 126.798 178.556C126.011 179.41 125.162 180.23 124.38 181.072C122.738 182.88 121.152 184.743 119.488 186.529C118.293 187.801 116.997 188.983 116.031 189.932C115.785 191.494 115.601 192.688 115.378 194.132C118.608 196.874 122.173 199.194 125.988 201.039L131.344 201.413C133.198 199.929 133.661 198.194 133.963 196.353C134.173 194.721 134.515 193.109 134.985 191.533C135.253 190.729 136.102 190.116 136.605 189.48C138.14 190.11 138.838 190.874 138.649 192.269C138.576 192.788 138.649 193.324 138.604 193.848C138.157 197.842 137.654 201.837 137.241 205.837C136.895 209.151 136.655 212.476 136.348 215.79C136.041 219.103 135.722 222.306 135.415 225.564C135.309 226.68 135.259 227.851 135.125 228.984C134.968 230.3 134.739 231.611 134.566 232.928L134.952 232.984C134.298 234.473 133.667 235.963 134.555 237.631L133.678 238.15V249.865L141.636 251.048V251.254L142.575 250.92L150.683 251.355L151.298 251.087H154.291V251.143H164.617L175.591 250.49V250.618L178.729 250.295V250.367L185.045 249.748C190.44 249.068 196.008 249.876 201.09 248.013V244.169C200.973 243.053 200.783 241.564 200.665 240.08C200.582 239.003 200.665 237.91 200.548 236.839C200.364 235.115 200.051 233.402 199.867 231.678C199.671 229.804 199.599 227.907 199.409 226.032C199.146 223.388 198.822 220.749 198.538 218.105C198.309 216.018 198.158 213.921 197.879 211.84C197.532 209.257 197.047 206.691 196.689 204.113C196.131 199.923 195.6 195.745 195.058 191.533C195.036 191.448 195.006 191.366 194.969 191.287C194.349 189.463 194.829 188.286 196.605 187.343C197.244 187.511 197.811 187.882 198.222 188.398C198.632 188.915 198.865 189.551 198.884 190.211C198.967 190.951 199.128 191.68 199.364 192.386C199.8 193.815 200.286 195.232 200.978 197.34C201.793 198.049 203.156 199.226 204.502 200.381C205.206 199.89 205.965 199.377 206.702 198.841C209.495 196.799 212.387 194.847 215.079 192.676C217.458 190.763 217.402 188.459 215.124 186.478C213.834 185.329 212.432 184.297 210.935 183.103ZM447.001 160.788C447.195 161.759 447.187 162.759 446.979 163.727C446.77 164.696 446.366 165.611 445.79 166.417C444.768 167.934 444.014 169.764 441.774 169.948C441.657 169.948 441.579 170.216 441.445 170.305C440.328 171.047 439.306 172.079 438.094 172.447C435.559 173.206 432.917 173.613 430.834 174.06C424.177 172.671 418.911 170.155 416.945 163.426L415.164 163.661C414.773 164.152 414.415 164.587 414.304 164.726C413.779 167.114 413.315 169.189 412.88 171.237C412.517 172.955 412.321 174.712 411.83 176.397C411.199 178.629 411.109 180.899 410.825 183.164C410.59 185.072 410.328 186.986 409.998 188.888C409.585 191.282 408.954 193.647 408.663 196.052C408.457 197.764 408.507 199.449 408.038 201.184C407.161 204.414 406.731 207.767 406.189 211.081C405.648 214.395 405.229 217.564 404.721 220.799C404.682 221.045 404.408 221.257 404.235 221.491L404.458 222.635C403.98 224.474 403.596 226.336 403.308 228.214C402.559 232.833 401.794 237.441 401.107 242.066C400.387 246.903 399.728 251.751 399.097 256.571C399.033 257.546 399.033 258.525 399.097 259.5C400.622 259.801 401.889 260.091 403.185 260.298C406.184 260.777 409.177 261.307 412.198 261.648C414.51 261.904 416.856 261.921 419.185 261.988C419.523 261.935 419.845 261.807 420.128 261.614C420.529 261.85 420.964 262.019 421.418 262.116C424.926 262.183 428.433 262.228 431.94 262.217C433.029 262.217 434.118 261.932 435.207 261.944C436.832 261.944 438.463 262.222 440.082 262.195C441.897 262.161 443.707 261.849 445.522 261.798C446.89 261.759 448.269 261.999 449.643 262.005C450.81 262.005 451.977 261.865 453.496 261.765L454.15 261.352L454.234 261.698C459.606 261.307 464.962 260.828 470.004 258.713C469.96 257.715 469.921 256.861 469.893 256.303C469.709 255.693 469.561 255.073 469.452 254.446C469.379 253.731 469.507 252.989 469.379 252.292C469.105 250.858 468.681 249.452 468.39 248.024C468.055 246.384 467.832 244.733 467.514 243.087C463.928 225.793 459.572 208.638 456.601 190.886C456.25 189.279 455.758 187.36 455.423 185.413C454.999 182.941 454.714 180.448 454.351 177.965C454.139 176.542 453.887 175.125 453.642 173.708C453.558 172.88 453.386 172.062 453.128 171.27C452.368 169.407 452.184 167.46 451.922 165.496C451.771 164.38 451.447 163.042 450.698 162.322C449.816 161.591 448.442 161.379 447.001 160.804V160.788ZM450.051 98.1873C443.612 97.6295 437.731 99.8275 432.096 96.9544C431.219 93.6071 430.136 90.3769 429.572 87.0519C429.008 83.727 428.617 80.3015 427.651 77.01C427.238 77.2164 427.025 77.3838 426.936 77.6014C426.098 79.699 425.071 81.7576 424.501 83.9278C423.636 87.2082 423.222 90.6224 422.346 93.8805C421.966 95.3087 421.586 97.0493 419.994 97.7466C418.826 98.2109 417.602 98.5204 416.353 98.6671C415.521 98.7954 414.633 98.5555 413.79 98.6671C411.433 98.9182 409.088 99.2808 406.731 99.5542C405.056 99.7494 403.38 99.8722 401.705 100.028L401.738 100.19L400.007 99.7829L399.142 100.419L396.796 100.62C396.495 100.062 395.774 99.3422 395.819 98.6727C396.009 95.8498 396.377 93.0381 396.763 90.2263C397.008 88.363 397.321 86.5052 397.634 84.6475L397.299 84.5805C396.148 86.5666 394.914 88.4857 393.87 90.5499C392.825 92.6141 392.194 94.6782 390.156 95.9781L390.502 96.1845L388.687 99.5151L388.453 99.3143L382.265 106.734C382.79 109.585 383.103 113.256 384.175 116.687C386.157 123.008 387.872 129.518 392.703 134.506C393.4 135.322 394.146 136.095 394.936 136.821C397.031 138.612 399.091 140.464 401.331 142.048C403.595 143.712 406.011 145.16 408.546 146.372C410.663 147.326 413.014 147.778 415.348 148.219C418.699 148.855 422.05 149.306 425.4 149.775C425.817 149.794 426.215 149.949 426.535 150.216C426.855 150.483 427.078 150.847 427.171 151.253C427.49 152.166 427.603 153.138 427.5 154.099C427.31 155.477 427.751 156.933 427.818 158.361C427.93 160.76 426.562 161.898 424.166 161.63C422.987 161.568 421.805 161.568 420.625 161.63C420.776 163.862 421.642 165.323 423.189 166.372C425.407 167.826 427.936 168.74 430.572 169.039C435.659 169.742 441.473 166.852 443.712 162.21C442.791 161.652 441.897 160.788 440.853 160.486C438.876 159.929 438.278 159.287 438.278 157.139C438.325 155.197 438.254 153.254 438.066 151.32C437.899 149.926 438.345 149.055 439.25 148.531C439.924 148.636 440.606 148.682 441.288 148.67C443.69 148.397 446.074 148.012 448.476 147.75C453.027 147.259 457.244 145.608 461.265 143.61C463.761 142.366 465.972 140.458 468.134 138.634C472.153 135.212 475.391 130.967 477.627 126.188C478.77 123.955 479.705 121.623 480.42 119.22C481.229 116.201 481.587 113.083 482.145 109.981C482.352 108.865 482.614 107.75 482.782 106.634C483.139 104.235 483.463 101.836 483.77 99.4314C483.772 99.0566 483.735 98.6827 483.659 98.3157C483.001 98.2396 482.339 98.2005 481.676 98.1985C479.359 98.3268 477.047 98.5053 474.729 98.6616C473.824 98.7173 472.92 98.7899 472.009 98.8178C470.485 98.868 468.96 98.8791 467.436 98.9293C465.593 98.9907 463.75 99.08 462.409 98.0088L459.092 89.1831C457.311 84.7925 457.495 79.699 454.624 75.6209L452.279 74.851C452.541 76.8538 452.938 78.6558 452.994 80.4689C453.111 84.5861 453.078 88.7145 453.072 92.8372C453.061 93.8492 452.982 94.8593 452.837 95.861C452.592 97.529 450.754 98.5946 450.051 98.1873ZM182.549 292.103C182.147 288.198 181.767 284.532 181.365 280.649C180.365 280.833 179.578 280.995 178.779 281.124C177.149 281.449 175.503 281.689 173.848 281.843C172.731 281.905 171.553 280.398 171.464 279.227C171.346 277.615 171.179 276.008 171.011 274.401C170.833 272.627 170.626 270.858 170.453 269.09C170.302 267.589 170.229 266.077 170.023 264.588C169.878 263.533 169.57 262.507 169.246 261.073L165.633 260.566C165.633 262.155 165.7 263.751 165.633 265.335C165.399 270.278 165.114 275.216 164.84 280.153C164.768 281.453 164.064 282.384 162.863 282.384C160.747 282.329 158.641 282.039 156.525 281.827L156.569 281.659L153.476 282.094C153.476 284.934 153.559 287.64 153.476 290.34C153.347 293.537 153.046 296.728 152.839 299.924C152.671 302.558 152.442 305.185 152.403 307.818C152.37 309.977 152.571 312.136 152.671 314.295H152.789V318.29H152.923L152.621 320.689L154.19 320.572L155.246 321.202L155.252 320.784L159.161 320.99L159.959 320.354L160.925 321.063L163.506 319.869C164.997 321.431 166.75 319.244 168.347 320.203C168.537 319.768 168.694 319.422 168.934 318.87C170.179 320.806 171.787 320.544 173.2 320.042L176.551 320.36L177.562 319.724L178.495 320.393H182.772C182.912 319.038 183.052 317.771 183.163 316.488C183.292 314.948 183.42 313.408 183.493 311.869C183.493 311.383 183.191 310.859 183.286 310.407C183.655 308.666 183.711 306.993 182.728 305.436C184.129 303.277 182.862 301.007 182.951 298.803C183.04 296.599 182.499 294.385 182.225 292.136L182.549 292.103ZM428.734 267.427V288.315C428.522 289.955 429.723 315.986 430.443 319.986H432.917C432.845 317.894 433.062 315.908 434.754 314.541C436.268 313.319 437.876 312.215 439.485 311.032C438.971 310.056 439.585 289.124 440.211 287.74V275.623H440.278V267.227H434.95V267.188L432.716 267.416L428.734 267.427ZM504.445 244.733C503.328 243.31 501.898 241.943 501.652 239.818L502.886 240.136L501.401 237.765L502.518 235.723L508.879 240.878L509.169 240.688C509.005 240.187 508.802 239.7 508.56 239.232C506.389 235.791 503.516 232.847 500.128 230.59C498.67 229.592 497.615 227.957 496.498 226.518C490.455 218.707 484.597 210.769 479.744 202.116C477.03 197.262 473.796 192.704 470.809 188.007C470.657 187.717 470.532 187.415 470.434 187.103L464.459 193.363C465.436 194.612 466.274 195.522 466.933 196.548C468.335 198.741 469.586 201.011 470.998 203.209C473.794 207.524 476.631 211.801 479.509 216.041C480.95 218.183 482.402 220.331 483.977 222.356C485.552 224.381 487.456 226.434 489.232 228.442C491.159 230.613 492.616 232.961 492.901 235.968C493.169 238.758 493.538 241.514 494.828 244.052C495.113 244.686 495.547 245.241 496.094 245.67C496.64 246.1 497.283 246.391 497.966 246.518C497.408 244.844 495.822 243.729 496.291 241.932C498.43 241.547 499.279 241.826 500.535 243.321C501.273 244.192 501.915 245.146 502.685 245.982C503.082 246.274 503.526 246.495 503.998 246.635C504.216 245.809 504.322 245.296 504.445 244.705V244.733ZM374.631 224.091C374.313 224.498 373.977 224.889 373.681 225.313C372.877 226.428 372.565 227.885 371.101 228.632C370.146 229.232 369.284 229.969 368.544 230.819C367.678 231.678 366.868 232.61 366.086 233.542C364.401 235.556 363.329 238.011 362.998 240.616L367.159 235.544C368.834 236.409 369.219 237.129 368.789 238.468C368.571 239.038 368.323 239.597 368.047 240.141C367.421 241.558 366.818 242.975 367.198 244.973C367.698 244.515 368.149 244.006 368.544 243.455C369.057 242.496 369.376 241.424 369.912 240.47C370.347 239.828 370.841 239.227 371.386 238.674L373.268 240.041C373.117 241.341 372.983 242.54 372.849 243.745C375.139 242.127 375.809 239.712 376.323 237.424C376.948 234.635 377.507 231.913 379.071 229.475C381.271 226.049 383.421 222.59 385.605 219.154C386.325 218.01 387.079 216.883 387.838 215.756C388.737 214.389 389.665 213.045 390.53 211.661C391.854 209.552 393.093 207.388 394.439 205.29C396.79 201.619 399.192 197.976 401.403 194.579L395.763 188.715C389.335 200.782 381.64 212.147 374.631 224.046V224.091ZM206.898 203.321C207.635 204.18 208.232 204.995 208.953 205.692C211.187 207.823 213.421 209.898 215.654 212.024C220.815 216.933 225.83 222.004 231.157 226.724C234.128 229.363 236.317 232.203 236.982 236.208C237.451 238.998 239.612 240.705 241.494 242.54L241.902 242.311C241.059 240.749 240.227 239.193 239.327 237.542L240.802 236.314C244.153 237.179 245.119 240.978 248.291 242.038C248.341 241.798 248.492 241.525 248.408 241.413C246.599 238.841 244.767 236.286 242.784 233.514L245.18 231.455L249.838 235.07L251.407 232.565C249.536 230.931 247.71 229.078 245.08 228.504C242.556 228.012 240.245 226.756 238.462 224.905C234.743 220.922 231.202 216.777 227.594 212.665C223.64 208.124 219.731 203.544 215.788 198.992C215.456 198.658 215.102 198.346 214.727 198.06C212.449 200.353 208.925 200.481 206.898 203.321ZM94.0891 247.611L94.6476 247.907C96.0527 247.184 97.1681 246.003 97.8085 244.56C98.4898 243.093 98.7187 241.408 99.0985 239.807C100.037 235.84 102.254 232.61 104.923 229.647C106.526 227.873 108.274 226.239 109.799 224.392C111.574 222.228 113.149 219.885 114.825 217.653C117.176 214.562 119.588 211.516 121.923 208.431C122.855 207.198 123.665 205.876 124.581 204.526L116.718 199.845C116.199 200.816 115.791 201.731 115.26 202.562C110.234 210.406 105.253 218.295 100.048 226.021C98.8025 227.868 97.317 229.664 94.9882 230.685C92.4696 231.801 90.2413 233.564 87.9237 235.098C86.8619 235.82 85.8437 236.604 84.8745 237.447C83.7576 238.39 83.6069 239.762 83.4561 241.224C85.1192 240.359 86.6765 239.305 88.0969 238.083C88.5176 237.65 89.0596 237.354 89.6517 237.235C90.2437 237.115 90.8581 237.177 91.4141 237.413C92.4361 239.115 92.3691 239.371 90.8556 240.61C90.668 241.153 90.4422 241.683 90.1799 242.194C89.6215 243.159 88.9178 244.069 88.3649 245.051C88.1667 245.539 88.0243 246.048 87.9405 246.568L88.3314 246.747C90.9506 245.592 92.0172 242.233 95.3959 241.67L96.5575 242.786C95.636 244.554 94.8654 246.083 94.1003 247.611H94.0891ZM417.526 295.757C418.95 299.79 417.973 304.025 418.894 308.03C419.877 310.201 424.323 311.902 425.16 310.959C425.277 309.247 425.389 307.885 425.451 306.524C425.453 305.999 425.408 305.474 425.317 304.957C425.116 303.523 424.758 302.1 424.713 300.661C424.557 297.313 424.529 293.966 424.451 290.652H424.406C424.239 282.987 424.077 275.322 423.909 267.589L414.868 266.686C414.974 268.359 415.041 269.921 415.175 271.478C415.387 273.955 415.594 276.432 415.901 278.898C416.158 280.995 416.549 283.071 416.878 285.163C417.107 286.613 417.727 288.147 417.437 289.503C417.146 291.04 417.216 292.623 417.643 294.128C417.696 294.673 417.66 295.223 417.537 295.757H417.526ZM449.247 309.146C449.448 307.244 449.609 305.503 449.805 303.768C449.945 302.652 450.246 301.587 450.363 300.482C450.583 297.879 450.758 295.275 450.888 292.672C451.106 288.443 451.274 284.209 451.447 279.974C451.497 278.937 451.542 277.893 451.586 276.85H451.854V266.669L444.131 267.584C444.136 267.848 444.177 268.111 444.254 268.365C444.812 269.319 445.131 270.267 444.399 271.294C444.299 271.444 444.36 271.718 444.399 271.935C444.466 273.319 444.835 274.758 444.555 276.064C444.025 278.568 444.74 281.029 444.343 283.578C443.785 287.249 444.181 291.065 444.12 294.82C444.036 299.79 443.908 304.756 443.796 309.81C443.746 309.81 443.874 309.883 443.98 309.871C445.717 309.626 447.454 309.392 449.258 309.129L449.247 309.146ZM148.265 311.584C147.573 311.45 147.025 311.322 146.467 311.238C143.451 310.781 140.447 310.245 137.426 309.899C133.79 309.487 130.4 310.574 127.139 312.025C124.196 313.336 122.001 315.372 121.521 318.72V320.951L124.145 321.877V321.66L145.925 321.057L146.863 319.902L148.26 320.114L148.265 311.584ZM187.402 316.243C187.575 317.52 187.726 318.63 187.905 319.964C196.332 321.576 204.731 321.007 213.365 319.902C213.275 318.714 213.588 317.347 213.041 316.65C211.628 314.848 210.098 312.839 208.143 311.835C204.136 309.832 199.595 309.152 195.176 309.894C192.668 310.273 190.284 311.567 187.402 310.58V316.243ZM141.089 280.895C140.905 282.089 140.653 283.327 140.531 284.582C140.458 285.375 140.625 286.184 140.625 286.987C140.625 289.81 140.586 292.633 140.575 295.456C140.575 297.129 140.575 298.803 140.575 300.694C141.134 301.341 140.854 302.641 140.279 304.192C139.95 305.096 140.19 305.715 140.838 306.106C142.781 307.328 145.009 307.74 147.316 308.337C147.874 307.322 148.288 306.468 148.729 305.615L148.522 305.576V303.64H148.718V297.877H148.868V293.877C149.195 293.376 149.387 292.8 149.427 292.203C149.36 289.228 149.244 286.265 149.081 283.316C148.98 282.683 148.811 282.062 148.578 281.464L141.089 280.895ZM186.43 288.198L186.397 288.393C186.693 289.304 186.921 290.237 187.078 291.182C187.285 293.291 187.424 295.405 187.469 297.52C187.53 300.555 187.469 303.595 187.469 306.569C188.547 306.959 189.468 307.473 190.434 307.595C191.401 307.718 192.484 307.461 193.623 307.367L194.662 306.195C194.93 303.406 194.93 300.616 194.924 297.827C194.919 297.563 194.891 297.299 194.841 297.04C194.511 295.288 193.992 293.548 193.902 291.779C193.791 289.721 194.109 287.634 194.126 285.559C194.069 284.436 193.942 283.318 193.746 282.211L193.4 282.256L194.416 280.404L194.171 279.952L186.631 281.068L186.045 282.691L186.413 282.719C186.341 283.785 186.229 284.85 186.218 285.916C186.253 286.674 186.327 287.43 186.441 288.181L186.43 288.198ZM403.542 190.986C403.928 190.635 404.285 190.478 404.346 190.238C404.905 188.046 405.508 185.853 405.983 183.639C406.496 181.229 406.469 178.746 407.323 176.358C408.127 174.127 408.496 171.728 408.998 169.39C409.294 168.023 409.484 166.634 409.758 165.022C403.447 169.162 398.874 174.651 393.981 180.113C396.299 184.409 400.415 187.148 403.542 190.986ZM457.651 171.678C458.852 178.551 459.93 184.715 461.002 190.874C465.33 187.103 468.469 184.955 470.982 179.588C469.798 177.206 458.478 166.4 456.199 165.535C456.713 167.817 458.221 169.864 457.651 171.678ZM425.998 320.421C426.556 317.966 425.607 316.466 423.675 315.344C420.569 313.513 417.039 312.523 413.433 312.471C410.64 312.421 408.11 313.347 405.748 314.647C404.173 315.512 403.079 316.929 403.453 319.395C404.603 319.802 405.916 320.65 407.245 320.678C412.936 320.773 418.626 320.633 424.322 320.566C424.881 320.561 425.439 320.471 425.998 320.421ZM458.774 320.388C460.572 318.29 459.388 314.574 456.674 313.849C451.648 312.505 446.622 312.438 441.758 314.636C439.697 315.567 437.798 316.728 437.24 319.188C437.798 320.259 438.664 320.561 439.747 320.572C441.087 320.572 442.422 320.655 443.762 320.694C448.749 320.834 453.742 321.096 458.774 320.388ZM152.487 161.708C152.545 163.363 152.942 164.988 153.653 166.484C154.363 167.98 155.373 169.314 156.62 170.406C160.797 173.993 165.901 175.784 171.184 174.311C177.327 172.609 181.371 168.174 182.839 161.452L179.154 160.671C179.113 161.301 179.016 161.926 178.863 162.539C178.344 163.917 178.065 165.569 177.121 166.567C174.468 169.357 171.168 171.148 167.141 170.646C162.215 170.037 157.915 168.336 155.804 163.304C155.443 162.54 155.042 161.795 154.604 161.072L152.487 161.708ZM442.444 28.5855L450.592 29.004L450.648 28.5967L442.271 24.87L441.908 25.1936C442.104 26.3317 442.299 27.4698 442.444 28.5855Z" fill="#FF804F"/>
<path d="M282.697 164.604L282.055 166.249C278.069 167.726 274.523 170.186 271.746 173.401C271.523 173.725 271.232 173.996 270.892 174.194C270.171 174.489 269.127 175.064 268.703 174.785C268.292 174.519 267.938 174.173 267.662 173.769C267.386 173.365 267.193 172.91 267.094 172.431C266.793 168.866 266.67 165.279 266.631 161.697C266.547 158.563 266.633 155.427 266.888 152.302C267.229 149.673 267.719 147.065 268.356 144.492C268.742 142.668 269.233 140.866 269.702 139.064C269.752 138.874 269.953 138.723 270.199 138.416C270.536 138.674 270.856 138.952 271.16 139.248C272.835 141.033 273.79 143.192 274.578 145.463C275.075 146.885 275.801 148.252 276.197 149.686C277.264 153.591 279.498 157.011 280.843 160.804C281.385 162.107 282.004 163.375 282.697 164.604Z" fill="#FF804F"/>
<path d="M326.408 172.805L324.923 173.831C320.924 172.86 318.338 169.692 315.2 167.399C314.546 167.293 313.893 167.209 313.251 167.081C310.827 166.579 309.14 164.693 310.648 161.552C311.905 158.935 313.267 156.352 314.301 153.647C315.529 150.422 317.093 147.331 318.137 144.029C318.696 142.4 319.221 140.336 321.041 139.303C322.918 139.767 322.717 141.44 323.085 142.684C323.737 144.928 324.258 147.208 324.643 149.513C325.202 153.133 325.621 156.765 326.034 160.419C326.235 162.199 326.347 163.996 326.391 165.786C326.453 168.129 326.408 170.467 326.408 172.805Z" fill="#FF804F"/>
<path d="M299.2 209.38C300.032 210.791 300.934 212.159 301.903 213.48C302.774 214.562 304.137 214.501 305.438 214.49C307.018 214.49 307.465 213.458 307.856 212.197C308.091 211.444 308.37 210.523 309.532 210.746C310.604 210.975 310.81 211.723 310.833 212.721C310.905 215.985 308.303 218.217 304.489 218.138C303.141 218.132 301.815 217.792 300.631 217.148C299.447 216.505 298.441 215.578 297.703 214.451C297.474 214.127 297.251 213.804 297.022 213.486C297.022 213.452 296.944 213.447 296.827 213.391C295.978 214.2 295.151 215.064 294.224 215.862C292.376 217.477 289.976 218.318 287.523 218.211C284.446 218.172 281.38 215.221 282.173 211.929L283.96 210.345C284.434 210.903 284.92 211.394 285.3 211.951C285.819 212.716 286.166 214.116 286.763 214.211C288.139 214.388 289.537 214.241 290.846 213.781C292.214 213.329 293.872 210.557 294.135 208.855C293.411 208.508 292.665 208.21 291.901 207.963C291.051 207.747 290.284 207.287 289.694 206.639C289.104 205.992 288.718 205.185 288.584 204.32C288.498 203.843 288.555 203.351 288.748 202.906C288.94 202.462 289.26 202.084 289.667 201.82C291.974 200.045 294.885 199.244 297.776 199.589C299.376 199.819 300.948 200.214 302.467 200.766C304.176 201.357 305.019 202.657 305.019 204.515C305.019 206.373 303.863 207.187 302.523 207.918C301.596 208.437 300.557 208.799 299.2 209.38Z" fill="#FF804F"/>
<path d="M311.944 189.753C313.508 190.054 314.273 190.802 314.479 192.291C314.669 193.641 315.083 195.036 314.904 196.342C314.714 197.77 314.904 199.455 313.446 200.52C312.709 201.078 312.039 201.229 311.296 200.648C310.107 199.717 309.168 198.623 309.096 196.994C309.019 196.617 308.893 196.251 308.722 195.906L309.671 195.131C309.135 192.498 309.141 191.142 311.944 189.753Z" fill="#FF804F"/>
<path d="M278.822 194.941C279.084 193.775 279.073 192.448 279.665 191.483C280.983 189.34 283.323 189.441 284.239 191.767C284.97 193.619 285.657 195.672 284.563 197.77C284.267 198.328 284.233 199.025 283.96 199.6C283.245 201.101 282.284 201.273 280.949 200.269C279.615 199.265 279.09 197.709 279.034 196.035C279.034 195.689 279.034 195.338 279.034 194.986L278.822 194.941Z" fill="#FF804F"/>
<path d="M300.881 220.364C302.411 221.569 302.193 223.594 300.495 224.191C297.882 225.117 295.212 225.212 292.755 223.706C291.945 223.209 291.381 222.311 290.767 221.659C291.918 219.55 292.364 219.382 293.76 220.855C295.157 222.328 297.804 222.222 299.965 220.956C300.261 220.766 300.546 220.571 300.881 220.364Z" fill="#FF804F"/>
<path d="M136.957 119.945C137.387 118.333 136.443 117.284 135.482 115.855C135.935 114.159 136.494 112.494 137.158 110.868C138.14 108.77 140.402 108.664 141.821 110.517C143.239 112.369 143.172 114.522 143.178 116.653C143.178 117.161 142.993 117.669 142.943 118.187C142.804 119.588 142.357 120.787 140.855 121.206C140.156 121.45 139.397 121.459 138.693 121.231C137.989 121.004 137.379 120.552 136.957 119.945Z" fill="#FF804F"/>
<path d="M197.27 114.684C197.08 116.296 196.98 117.635 196.756 118.946C196.577 119.945 195.019 121.061 193.858 121.061C193.255 121.085 192.661 120.915 192.163 120.574C191.666 120.233 191.293 119.74 191.099 119.17C190.513 117.345 189.474 115.566 190.016 113.507C190.39 112.084 190.507 110.556 191.791 109.546C192.035 109.324 192.319 109.153 192.629 109.042C192.939 108.931 193.268 108.882 193.596 108.899C193.925 108.915 194.247 108.997 194.544 109.139C194.841 109.28 195.107 109.48 195.327 109.725C196.846 111.175 196.991 113.089 197.27 114.684Z" fill="#FF804F"/>
<path d="M159.831 132.938C160.194 133.2 160.529 133.407 160.825 133.658C164.271 136.542 167.309 136.101 170.994 133.1C171.743 132.492 172.273 132.023 173.078 132.888C173.407 133.24 173.584 133.707 173.57 134.189C173.556 134.67 173.353 135.127 173.005 135.46C170.402 137.479 167.543 139.114 164.148 138.807C163.069 138.713 162.029 138.36 161.116 137.777C160.204 137.194 159.447 136.399 158.909 135.46C158.334 134.45 158.692 133.591 159.831 132.938Z" fill="#FF804F"/>
<path d="M165.656 117.769L167.889 119.794L166.119 122.115C167.236 123.844 170.028 123.019 170.76 125.418C170.319 125.976 169.833 126.64 169.274 127.236C169.057 127.476 168.627 127.755 168.381 127.694C166.979 127.337 165.41 127.17 164.276 126.388C163.673 125.932 163.202 125.322 162.912 124.623C162.623 123.924 162.525 123.16 162.629 122.411C162.759 121.462 163.098 120.553 163.621 119.751C164.144 118.948 164.839 118.271 165.656 117.769Z" fill="#FF804F"/>
<path d="M457.255 120.363C455.769 120.363 454.608 119.153 454.027 117.797C453.399 116.467 453.15 114.991 453.306 113.529C453.493 112.173 453.846 110.844 454.356 109.574C454.576 109.065 454.953 108.64 455.433 108.362C455.912 108.083 456.469 107.967 457.02 108.028C458.64 108.084 459.304 109.323 459.868 110.567C460.985 112.983 460.354 115.56 460.427 118.059C460.516 119.387 458.93 120.374 457.255 120.363Z" fill="#FF804F"/>
<path d="M403.766 117.267C403.766 115.772 403.805 114.277 403.766 112.804C403.715 111.158 404.62 110.014 405.675 108.927C406.608 108.001 407.68 108.201 408.702 109.066C410.769 110.812 410.568 113.183 410.646 115.482C410.679 116.598 410.568 117.674 410.523 118.768C410.467 120.09 409.657 120.776 407.731 121.15C406.736 121.34 405.162 120.592 404.86 119.733C404.598 118.957 404.447 118.148 404.246 117.356L403.766 117.267Z" fill="#FF804F"/>
<path d="M431.387 121.061C432.588 121.468 433.375 121.886 434.179 121.976C435.24 122.093 435.95 122.534 436.167 123.532C436.267 124.032 436.192 124.551 435.956 125.003C435.719 125.455 435.334 125.812 434.866 126.015C432.537 127.264 429.114 126.389 427.768 124.124C427.345 123.379 427.206 122.507 427.377 121.669C427.765 120.376 428.313 119.138 429.008 117.981C429.779 116.609 430.633 116.419 431.968 117.1C433.303 117.78 433.336 118.517 432.387 119.538C432.018 120.022 431.684 120.53 431.387 121.061Z" fill="#FF804F"/>
<path d="M440.3 131.906C440.461 132.383 440.461 132.901 440.298 133.378C440.135 133.854 439.82 134.265 439.401 134.545C436.184 136.977 429.823 137.172 426.556 134.885C426.263 134.66 425.983 134.418 425.719 134.16C425.853 133.412 425.964 132.782 426.099 132.051L427.517 131.203C428.93 133.256 430.907 133.775 433.275 133.647C435.643 133.518 437.117 131.928 438.859 130.679L440.3 131.906Z" fill="#FF804F"/>
</svg>
